G04 #@! TF.GenerationSoftware,KiCad,Pcbnew,(5.1.0)-1*
G04 #@! TF.CreationDate,2019-07-30T22:29:16-05:00*
G04 #@! TF.ProjectId,LatheControl,4c617468-6543-46f6-9e74-726f6c2e6b69,01*
G04 #@! TF.SameCoordinates,Original*
G04 #@! TF.FileFunction,Copper,L1,Top*
G04 #@! TF.FilePolarity,Positive*
%FSLAX46Y46*%
G04 Gerber Fmt 4.6, Leading zero omitted, Abs format (unit mm)*
G04 Created by KiCad (PCBNEW (5.1.0)-1) date 2019-07-30 22:29:16*
%MOMM*%
%LPD*%
G04 APERTURE LIST*
%ADD10C,2.540000*%
%ADD11R,2.000000X0.700000*%
%ADD12R,2.000000X2.000000*%
%ADD13C,2.000000*%
%ADD14R,2.600000X1.600000*%
%ADD15R,1.600000X2.600000*%
%ADD16R,1.500000X3.200000*%
%ADD17R,2.200000X2.200000*%
%ADD18O,2.200000X2.200000*%
%ADD19R,1.500000X1.300000*%
%ADD20R,1.200000X0.900000*%
%ADD21R,1.200000X2.200000*%
%ADD22R,5.800000X6.400000*%
%ADD23R,2.750000X3.050000*%
%ADD24C,3.500000*%
%ADD25R,0.700000X2.000000*%
%ADD26R,0.900000X1.200000*%
%ADD27R,1.560000X0.650000*%
%ADD28C,2.500000*%
%ADD29C,3.250000*%
%ADD30R,2.100000X2.100000*%
%ADD31C,2.100000*%
%ADD32R,3.750000X2.500000*%
%ADD33R,3.050000X2.750000*%
%ADD34R,6.400000X5.800000*%
%ADD35R,2.200000X1.200000*%
%ADD36C,0.800000*%
%ADD37C,6.400000*%
%ADD38C,1.850000*%
%ADD39R,1.850000X1.850000*%
%ADD40R,3.800000X2.000000*%
%ADD41O,3.500000X2.200000*%
%ADD42O,2.500000X1.500000*%
%ADD43R,2.500000X1.500000*%
%ADD44C,0.508000*%
%ADD45C,0.381000*%
%ADD46C,0.304800*%
%ADD47C,0.750000*%
%ADD48C,1.250000*%
%ADD49C,0.250000*%
%ADD50C,0.254000*%
G04 APERTURE END LIST*
D10*
X166179500Y-95440500D03*
X166179500Y-101790500D03*
X166179500Y-108140500D03*
X166179500Y-114490500D03*
X196659500Y-95440500D03*
X196659500Y-101790500D03*
X196659500Y-108140500D03*
X196659500Y-114490500D03*
D11*
X240093500Y-98361500D03*
X240093500Y-96461500D03*
X236693500Y-97411500D03*
D12*
X205930500Y-124777500D03*
D13*
X205930500Y-129777500D03*
D14*
X175409000Y-134747000D03*
X171809000Y-134747000D03*
D15*
X195135500Y-131296000D03*
X195135500Y-134896000D03*
D16*
X187515500Y-141731500D03*
X187515500Y-137731500D03*
D17*
X214947500Y-97345500D03*
D18*
X225107500Y-97345500D03*
D19*
X226060000Y-101727000D03*
X223360000Y-101727000D03*
X169131000Y-141795500D03*
X171831000Y-141795500D03*
D20*
X230527500Y-97345500D03*
X232727500Y-97345500D03*
X212194500Y-111823500D03*
X209994500Y-111823500D03*
X216639500Y-111823500D03*
X214439500Y-111823500D03*
X228854000Y-101727000D03*
X231054000Y-101727000D03*
X169504000Y-145034000D03*
X171704000Y-145034000D03*
D21*
X183705500Y-135699500D03*
X181425500Y-135699500D03*
X179145500Y-135699500D03*
D22*
X181425500Y-141999500D03*
D23*
X179900500Y-143674500D03*
X182950500Y-140324500D03*
X182950500Y-143674500D03*
X179900500Y-140324500D03*
D13*
X255220500Y-78803500D03*
X260220500Y-78803500D03*
X245220500Y-78803500D03*
X240220500Y-78803500D03*
X179500500Y-77914500D03*
X174500500Y-77914500D03*
X189500500Y-77914500D03*
X194500500Y-77914500D03*
D17*
X225107500Y-132143500D03*
D18*
X225107500Y-142303500D03*
D17*
X225107500Y-176593500D03*
D18*
X225107500Y-186753500D03*
D24*
X241502499Y-142938501D03*
X247502499Y-142938501D03*
X252102499Y-142938501D03*
X252102499Y-132938501D03*
X247502499Y-132938501D03*
X241502499Y-132938501D03*
X235052499Y-145738501D03*
X235052499Y-130138501D03*
X241205500Y-186593500D03*
X247205500Y-186593500D03*
X251805500Y-186593500D03*
X251805500Y-176593500D03*
X247205500Y-176593500D03*
X241205500Y-176593500D03*
X234755500Y-189393500D03*
X234755500Y-173793500D03*
D25*
X210632000Y-150529500D03*
X212532000Y-150529500D03*
X211582000Y-147129500D03*
X218315500Y-194930500D03*
X220215500Y-194930500D03*
X219265500Y-191530500D03*
D26*
X211582000Y-141373500D03*
X211582000Y-143573500D03*
X219265500Y-185696500D03*
X219265500Y-187896500D03*
D27*
X184197000Y-152783500D03*
X184197000Y-153733500D03*
X184197000Y-154683500D03*
X186897000Y-154683500D03*
X186897000Y-152783500D03*
D26*
X169799000Y-172869500D03*
X169799000Y-175069500D03*
X165354000Y-172890000D03*
X165354000Y-175090000D03*
D20*
X168422500Y-158686500D03*
X166222500Y-158686500D03*
D26*
X199644000Y-149436000D03*
X199644000Y-147236000D03*
X200152000Y-167300000D03*
X200152000Y-165100000D03*
D20*
X209486500Y-158496000D03*
X211686500Y-158496000D03*
D27*
X184260500Y-159133500D03*
X184260500Y-160083500D03*
X184260500Y-161033500D03*
X186960500Y-161033500D03*
X186960500Y-159133500D03*
X184307500Y-170053000D03*
X184307500Y-171003000D03*
X184307500Y-171953000D03*
X187007500Y-171953000D03*
X187007500Y-170053000D03*
X184307500Y-177043000D03*
X184307500Y-177993000D03*
X184307500Y-178943000D03*
X187007500Y-178943000D03*
X187007500Y-177043000D03*
X191372500Y-152783500D03*
X191372500Y-153733500D03*
X191372500Y-154683500D03*
X194072500Y-154683500D03*
X194072500Y-152783500D03*
X192198000Y-170055500D03*
X192198000Y-171005500D03*
X192198000Y-171955500D03*
X194898000Y-171955500D03*
X194898000Y-170055500D03*
X200135500Y-170055500D03*
X200135500Y-171005500D03*
X200135500Y-171955500D03*
X202835500Y-171955500D03*
X202835500Y-170055500D03*
X199627500Y-152783500D03*
X199627500Y-153733500D03*
X199627500Y-154683500D03*
X202327500Y-154683500D03*
X202327500Y-152783500D03*
D28*
X265620500Y-76263500D03*
X265620500Y-81343500D03*
X169100500Y-81343500D03*
X169100500Y-76263500D03*
X209232500Y-54038500D03*
X204152500Y-54038500D03*
X229552500Y-54038500D03*
X224472500Y-54038500D03*
D24*
X208851500Y-84899500D03*
X224451500Y-84899500D03*
D29*
X211651500Y-78449500D03*
X211651500Y-72449500D03*
X211651500Y-67849500D03*
X221651500Y-67849500D03*
X221651500Y-72449500D03*
X221651500Y-78449500D03*
D28*
X180657500Y-58991500D03*
X185737500Y-58991500D03*
D30*
X187321500Y-127190500D03*
D31*
X182221500Y-127190500D03*
X172021500Y-127190500D03*
X177121500Y-127190500D03*
D28*
X263525000Y-163449000D03*
X263525000Y-158369000D03*
X266001500Y-138112500D03*
X266001500Y-143192500D03*
X247332500Y-163385500D03*
X247332500Y-158305500D03*
X233870500Y-163195000D03*
X233870500Y-158115000D03*
D32*
X228092000Y-108267500D03*
X221842000Y-108267500D03*
D33*
X218039500Y-120778000D03*
X221389500Y-117728000D03*
X218039500Y-117728000D03*
X221389500Y-120778000D03*
D34*
X219714500Y-119253000D03*
D35*
X213414500Y-121533000D03*
X213414500Y-119253000D03*
X213414500Y-116973000D03*
D36*
X166352556Y-51071444D03*
X164655500Y-50368500D03*
X162958444Y-51071444D03*
X162255500Y-52768500D03*
X162958444Y-54465556D03*
X164655500Y-55168500D03*
X166352556Y-54465556D03*
X167055500Y-52768500D03*
D37*
X164655500Y-52768500D03*
X165417500Y-195643500D03*
D36*
X167817500Y-195643500D03*
X167114556Y-197340556D03*
X165417500Y-198043500D03*
X163720444Y-197340556D03*
X163017500Y-195643500D03*
X163720444Y-193946444D03*
X165417500Y-193243500D03*
X167114556Y-193946444D03*
X271254556Y-51706444D03*
X269557500Y-51003500D03*
X267860444Y-51706444D03*
X267157500Y-53403500D03*
X267860444Y-55100556D03*
X269557500Y-55803500D03*
X271254556Y-55100556D03*
X271957500Y-53403500D03*
D37*
X269557500Y-53403500D03*
X269557500Y-195643500D03*
D36*
X271957500Y-195643500D03*
X271254556Y-197340556D03*
X269557500Y-198043500D03*
X267860444Y-197340556D03*
X267157500Y-195643500D03*
X267860444Y-193946444D03*
X269557500Y-193243500D03*
X271254556Y-193946444D03*
D38*
X247800500Y-109029500D03*
D39*
X245300500Y-109029500D03*
D38*
X169458000Y-154051000D03*
D39*
X171958000Y-154051000D03*
X205041500Y-163131500D03*
D38*
X207541500Y-163131500D03*
X166941500Y-166878000D03*
X169441500Y-166878000D03*
D39*
X171941500Y-166878000D03*
D19*
X217076000Y-177038000D03*
X214376000Y-177038000D03*
D25*
X212153500Y-174166000D03*
X211203500Y-170766000D03*
X213103500Y-170766000D03*
D26*
X208534000Y-175260000D03*
X208534000Y-177460000D03*
D28*
X264477500Y-102298500D03*
X269557500Y-102298500D03*
D38*
X180935000Y-191643000D03*
D39*
X178435000Y-191643000D03*
X195897500Y-191833500D03*
D38*
X198397500Y-191833500D03*
D11*
X179578000Y-185102500D03*
X176178000Y-186052500D03*
X176178000Y-184152500D03*
X191911500Y-184851000D03*
X191911500Y-186751000D03*
X195311500Y-185801000D03*
D20*
X185524500Y-185102500D03*
X183324500Y-185102500D03*
X198714000Y-185801000D03*
X200914000Y-185801000D03*
D40*
X214947500Y-103505000D03*
X195707000Y-141224000D03*
D41*
X167767000Y-187329000D03*
X167767000Y-179129000D03*
D42*
X167767000Y-185229000D03*
X167767000Y-183229000D03*
D43*
X167767000Y-181229000D03*
D38*
X270129000Y-109577500D03*
D39*
X270129000Y-112077500D03*
D20*
X238887000Y-118554500D03*
X236687000Y-118554500D03*
D36*
X209994500Y-110299500D03*
X232410000Y-101727000D03*
X169608500Y-134810500D03*
X187515500Y-135001000D03*
X185610500Y-135699500D03*
X183705500Y-133731000D03*
X241871500Y-96456500D03*
X173228000Y-145034000D03*
X192214500Y-173291500D03*
X184277000Y-173101000D03*
X191389000Y-155765500D03*
X184213500Y-155702000D03*
X184277000Y-162179000D03*
X212534500Y-152590500D03*
X199644000Y-155829000D03*
X184340500Y-180276500D03*
X200152000Y-173291500D03*
X220218000Y-196596000D03*
X199644000Y-145796000D03*
X200152000Y-163766500D03*
X212979000Y-158432500D03*
X165354000Y-176466500D03*
X169799000Y-176466500D03*
X211201000Y-168973500D03*
X231267000Y-108267500D03*
X195135500Y-137096500D03*
X166222500Y-157183000D03*
X174371000Y-186055000D03*
X190119000Y-186690000D03*
X187007500Y-73088500D03*
X189547500Y-73088500D03*
X192087500Y-73088500D03*
X194627500Y-73088500D03*
X197167500Y-73088500D03*
X187007500Y-75628500D03*
X187007500Y-78168500D03*
X187007500Y-80708500D03*
X187007500Y-83248500D03*
X187007500Y-85788500D03*
X187007500Y-88328500D03*
X187007500Y-90868500D03*
X187007500Y-93408500D03*
X187007500Y-95186500D03*
X201358500Y-80708500D03*
X201358500Y-83248500D03*
X201358500Y-85788500D03*
X201358500Y-88328500D03*
X201358500Y-90868500D03*
X189547500Y-95186500D03*
X192087500Y-95186500D03*
X194627500Y-95059500D03*
X199199500Y-75501500D03*
X199199500Y-51625500D03*
X201739500Y-51625500D03*
X204279500Y-51625500D03*
X206819500Y-51625500D03*
X209359500Y-51625500D03*
X211899500Y-51625500D03*
X214439500Y-51625500D03*
X199199500Y-54165500D03*
X199199500Y-56705500D03*
X199199500Y-59245500D03*
X199199500Y-61785500D03*
X199199500Y-64325500D03*
X199199500Y-66865500D03*
X199199500Y-69405500D03*
X214439500Y-54165500D03*
X214439500Y-56705500D03*
X214439500Y-59245500D03*
X214439500Y-61785500D03*
X214439500Y-64325500D03*
X201739500Y-71945500D03*
X203771500Y-73723500D03*
X206819500Y-73723500D03*
X219011500Y-51625500D03*
X221551500Y-51625500D03*
X224091500Y-51625500D03*
X226631500Y-51625500D03*
X229171500Y-51625500D03*
X231711500Y-51625500D03*
X234251500Y-51625500D03*
X219011500Y-54165500D03*
X234251500Y-54165500D03*
X219011500Y-56705500D03*
X234251500Y-56705500D03*
X219011500Y-59245500D03*
X234251500Y-59245500D03*
X219011500Y-61785500D03*
X234251500Y-61785500D03*
X219011500Y-64325500D03*
X234251500Y-64325500D03*
X234251500Y-66865500D03*
X234505500Y-69405500D03*
X231711500Y-71945500D03*
X229171500Y-73723500D03*
X226631500Y-73723500D03*
X236918500Y-73088500D03*
X239458500Y-73088500D03*
X241998500Y-73088500D03*
X244538500Y-73088500D03*
X247078500Y-73088500D03*
X237045500Y-84264500D03*
X239585500Y-84264500D03*
X242125500Y-84264500D03*
X244665500Y-84264500D03*
X247205500Y-84264500D03*
X247078500Y-76009500D03*
X247078500Y-81597500D03*
X234759500Y-74866500D03*
X234759500Y-82232500D03*
X267271500Y-78803500D03*
X252539500Y-71945500D03*
X255079500Y-71945500D03*
X257619500Y-71945500D03*
X260159500Y-71945500D03*
X262699500Y-71945500D03*
X265239500Y-71945500D03*
X267271500Y-71945500D03*
X252539500Y-85661500D03*
X255079500Y-85661500D03*
X257619500Y-85661500D03*
X260159500Y-85661500D03*
X262699500Y-85661500D03*
X265239500Y-85661500D03*
X267271500Y-85661500D03*
X252539500Y-78803500D03*
X252539500Y-81597500D03*
X252539500Y-76009500D03*
X252539500Y-73977500D03*
X252539500Y-83629500D03*
X267271500Y-83629500D03*
X267271500Y-73977500D03*
X167703500Y-71945500D03*
X167703500Y-85661500D03*
X182689500Y-85661500D03*
X170243500Y-85661500D03*
X172783500Y-85661500D03*
X175323500Y-85661500D03*
X177863500Y-85661500D03*
X180403500Y-85661500D03*
X170243500Y-71945500D03*
X172783500Y-71945500D03*
X175323500Y-71945500D03*
X177863500Y-71945500D03*
X180403500Y-71945500D03*
X182689500Y-71945500D03*
X182689500Y-78803500D03*
X182689500Y-81089500D03*
X182689500Y-83629500D03*
X182689500Y-76263500D03*
X182689500Y-73977500D03*
X167703500Y-83629500D03*
X167703500Y-73977500D03*
X167703500Y-78803500D03*
X213423500Y-141414500D03*
X204851000Y-140017500D03*
X166370000Y-153162000D03*
X171196000Y-172847000D03*
X180784500Y-177990500D03*
X181356000Y-152654000D03*
X182499000Y-170053000D03*
X182499000Y-160083500D03*
X179324000Y-158750000D03*
X170942000Y-158750000D03*
X198247000Y-170878500D03*
X197993000Y-161544000D03*
X207264000Y-160210500D03*
X202501500Y-156464000D03*
X209743000Y-154683500D03*
X214693500Y-167259000D03*
X190690500Y-183134000D03*
X214757000Y-193103500D03*
X202819000Y-181165500D03*
D44*
X209994500Y-111823500D02*
X209994500Y-110299500D01*
X231054000Y-101727000D02*
X232410000Y-101727000D01*
X171809000Y-134747000D02*
X169672000Y-134747000D01*
X169672000Y-134747000D02*
X169608500Y-134810500D01*
X187515500Y-137731500D02*
X187515500Y-135001000D01*
X183705500Y-135699500D02*
X185610500Y-135699500D01*
X183705500Y-135699500D02*
X183705500Y-133731000D01*
D45*
X240093500Y-96461500D02*
X241866500Y-96461500D01*
X241866500Y-96461500D02*
X241871500Y-96456500D01*
D44*
X171704000Y-145034000D02*
X173228000Y-145034000D01*
D46*
X192198000Y-171955500D02*
X192198000Y-173275000D01*
X192198000Y-173275000D02*
X192214500Y-173291500D01*
X184307500Y-171953000D02*
X184307500Y-173070500D01*
X184307500Y-173070500D02*
X184277000Y-173101000D01*
X184307500Y-178943000D02*
X184307500Y-179992000D01*
X191372500Y-154683500D02*
X191372500Y-155749000D01*
X191372500Y-155749000D02*
X191389000Y-155765500D01*
X184197000Y-154683500D02*
X184197000Y-155685500D01*
X184197000Y-155685500D02*
X184213500Y-155702000D01*
X184260500Y-161033500D02*
X184260500Y-162162500D01*
X184260500Y-162162500D02*
X184277000Y-162179000D01*
D45*
X212532000Y-150529500D02*
X212532000Y-152588000D01*
X212532000Y-152588000D02*
X212534500Y-152590500D01*
D46*
X199627500Y-154683500D02*
X199627500Y-155812500D01*
X199627500Y-155812500D02*
X199644000Y-155829000D01*
X184307500Y-179992000D02*
X184307500Y-180243500D01*
X184307500Y-180243500D02*
X184340500Y-180276500D01*
X200135500Y-171955500D02*
X200135500Y-173275000D01*
X200135500Y-173275000D02*
X200152000Y-173291500D01*
X220215500Y-194930500D02*
X220215500Y-196593500D01*
X220215500Y-196593500D02*
X220218000Y-196596000D01*
X199644000Y-147236000D02*
X199644000Y-145796000D01*
X200152000Y-165100000D02*
X200152000Y-163766500D01*
X211686500Y-158496000D02*
X212915500Y-158496000D01*
X212915500Y-158496000D02*
X212979000Y-158432500D01*
X165354000Y-175090000D02*
X165354000Y-176466500D01*
X169799000Y-175069500D02*
X169799000Y-176466500D01*
X211203500Y-170766000D02*
X211203500Y-168976000D01*
X211203500Y-168976000D02*
X211201000Y-168973500D01*
D44*
X228092000Y-108267500D02*
X231267000Y-108267500D01*
D45*
X195135500Y-134896000D02*
X195135500Y-137096500D01*
X166222500Y-158686500D02*
X166222500Y-157183000D01*
D44*
X176178000Y-186052500D02*
X174373500Y-186052500D01*
X174373500Y-186052500D02*
X174371000Y-186055000D01*
X191911500Y-186751000D02*
X190180000Y-186751000D01*
X190180000Y-186751000D02*
X190119000Y-186690000D01*
D47*
X211326373Y-84899500D02*
X213612373Y-87185500D01*
X208851500Y-84899500D02*
X211326373Y-84899500D01*
X213612373Y-87185500D02*
X213677500Y-87185500D01*
X213677500Y-87185500D02*
X216217500Y-89725500D01*
X216217500Y-89725500D02*
X216217500Y-94043500D01*
X224451500Y-84899500D02*
X224451500Y-93133500D01*
X225107500Y-93789500D02*
X225107500Y-97345500D01*
X224451500Y-93133500D02*
X225107500Y-93789500D01*
D46*
X230527500Y-97345500D02*
X225107500Y-97345500D01*
X226060000Y-101727000D02*
X228854000Y-101727000D01*
X169131000Y-141795500D02*
X169131000Y-143096000D01*
X169504000Y-143469000D02*
X169504000Y-145034000D01*
X169131000Y-143096000D02*
X169504000Y-143469000D01*
X232793500Y-97411500D02*
X232727500Y-97345500D01*
X236693500Y-97411500D02*
X232793500Y-97411500D01*
D45*
X247800500Y-102322000D02*
X247800500Y-109029500D01*
X240093500Y-98361500D02*
X243840000Y-98361500D01*
X243840000Y-98361500D02*
X247800500Y-102322000D01*
D48*
X182221500Y-107926500D02*
X182221500Y-127190500D01*
X166179500Y-95440500D02*
X169735500Y-95440500D01*
X169735500Y-95440500D02*
X182221500Y-107926500D01*
X196659500Y-101790500D02*
X196659500Y-108140500D01*
X166179500Y-101790500D02*
X166179500Y-108140500D01*
D44*
X226986867Y-145738501D02*
X235052499Y-145738501D01*
X225107500Y-142303500D02*
X225107500Y-143859134D01*
X225107500Y-143859134D02*
X226986867Y-145738501D01*
D49*
X211582000Y-141373500D02*
X213382500Y-141373500D01*
X213382500Y-141373500D02*
X213423500Y-141414500D01*
D44*
X234755500Y-189393500D02*
X226033000Y-189393500D01*
X225107500Y-188468000D02*
X225107500Y-186753500D01*
X226033000Y-189393500D02*
X225107500Y-188468000D01*
D45*
X225107500Y-186753500D02*
X221869000Y-186753500D01*
X220812000Y-185696500D02*
X219265500Y-185696500D01*
X221869000Y-186753500D02*
X220812000Y-185696500D01*
D46*
X211582000Y-147129500D02*
X211582000Y-143573500D01*
X219265500Y-187896500D02*
X219265500Y-191530500D01*
X190287700Y-152783500D02*
X188385200Y-154686000D01*
X191372500Y-152783500D02*
X190287700Y-152783500D01*
X188382700Y-154683500D02*
X186897000Y-154683500D01*
X188385200Y-154686000D02*
X188382700Y-154683500D01*
X169441500Y-168186147D02*
X169799000Y-168543647D01*
X169441500Y-166878000D02*
X169441500Y-168186147D01*
X169799000Y-168543647D02*
X169799000Y-172869500D01*
X169441500Y-166878000D02*
X169441500Y-164107500D01*
X169441500Y-164107500D02*
X168338500Y-163004500D01*
X168338500Y-163004500D02*
X165227000Y-163004500D01*
X165227000Y-163004500D02*
X164592000Y-162369500D01*
X164592000Y-162369500D02*
X164592000Y-154940000D01*
X164592000Y-154940000D02*
X166370000Y-153162000D01*
X169799000Y-172869500D02*
X171173500Y-172869500D01*
X171173500Y-172869500D02*
X171196000Y-172847000D01*
X184305000Y-177990500D02*
X184307500Y-177993000D01*
X180784500Y-177990500D02*
X184305000Y-177990500D01*
X184067500Y-152654000D02*
X184197000Y-152783500D01*
X181356000Y-152654000D02*
X184067500Y-152654000D01*
X165354000Y-170815000D02*
X165354000Y-172890000D01*
X166941500Y-166878000D02*
X166941500Y-169227500D01*
X166941500Y-169227500D02*
X165354000Y-170815000D01*
X184307500Y-170053000D02*
X182499000Y-170053000D01*
X182499000Y-160083500D02*
X184260500Y-160083500D01*
X169481500Y-154027500D02*
X169458000Y-154051000D01*
X182435500Y-153733500D02*
X184197000Y-153733500D01*
X182435500Y-153733500D02*
X182435500Y-155638500D01*
X182435500Y-155638500D02*
X179324000Y-158750000D01*
X179324000Y-158750000D02*
X179324000Y-170116500D01*
X180210500Y-171003000D02*
X184307500Y-171003000D01*
X179324000Y-170116500D02*
X180210500Y-171003000D01*
D45*
X170878500Y-158686500D02*
X170942000Y-158750000D01*
X168422500Y-158686500D02*
X170878500Y-158686500D01*
D46*
X190287700Y-153733500D02*
X189865000Y-154156200D01*
X191372500Y-153733500D02*
X190287700Y-153733500D01*
X189865000Y-154156200D02*
X189865000Y-160020000D01*
X188045300Y-161033500D02*
X188047800Y-161036000D01*
X186960500Y-161033500D02*
X188045300Y-161033500D01*
X188849000Y-161036000D02*
X189865000Y-160020000D01*
X188047800Y-161036000D02*
X188849000Y-161036000D01*
X188092300Y-171953000D02*
X188097300Y-171958000D01*
X187007500Y-171953000D02*
X188092300Y-171953000D01*
X188097300Y-171958000D02*
X189039500Y-171958000D01*
X190942000Y-170055500D02*
X192198000Y-170055500D01*
X189039500Y-171958000D02*
X190942000Y-170055500D01*
X191113200Y-171005500D02*
X190817500Y-171301200D01*
X192198000Y-171005500D02*
X191113200Y-171005500D01*
X190817500Y-171301200D02*
X190817500Y-171323000D01*
X190817500Y-171323000D02*
X190563500Y-171577000D01*
X190563500Y-171577000D02*
X190563500Y-178117500D01*
X189738000Y-178943000D02*
X187007500Y-178943000D01*
X190563500Y-178117500D02*
X189738000Y-178943000D01*
X198778791Y-152783500D02*
X198776291Y-152781000D01*
X199627500Y-152783500D02*
X198778791Y-152783500D01*
X198776291Y-152781000D02*
X198437500Y-152781000D01*
X196535000Y-154683500D02*
X194072500Y-154683500D01*
X198437500Y-152781000D02*
X196535000Y-154683500D01*
X199644000Y-152767000D02*
X199627500Y-152783500D01*
X199644000Y-149436000D02*
X199644000Y-152767000D01*
X200135500Y-170055500D02*
X197609500Y-170055500D01*
X197609500Y-170055500D02*
X197421500Y-170243500D01*
X197421500Y-170243500D02*
X197421500Y-171640500D01*
X197106500Y-171955500D02*
X194898000Y-171955500D01*
X197421500Y-171640500D02*
X197106500Y-171955500D01*
X200152000Y-170039000D02*
X200135500Y-170055500D01*
X200152000Y-167300000D02*
X200152000Y-170039000D01*
X199627500Y-153733500D02*
X198542700Y-153733500D01*
X197993000Y-154283200D02*
X197993000Y-154686000D01*
X198374000Y-171005500D02*
X198247000Y-170878500D01*
X200135500Y-171005500D02*
X198374000Y-171005500D01*
X197993000Y-154283200D02*
X198542700Y-153733500D01*
X197993000Y-161544000D02*
X197993000Y-154283200D01*
X207264000Y-159067500D02*
X207264000Y-160210500D01*
X207835500Y-158496000D02*
X207264000Y-159067500D01*
X209486500Y-158496000D02*
X207835500Y-158496000D01*
X207541500Y-163131500D02*
X211836000Y-163131500D01*
X213103500Y-164399000D02*
X213103500Y-170766000D01*
X211836000Y-163131500D02*
X213103500Y-164399000D01*
D48*
X166179500Y-114490500D02*
X174434500Y-114490500D01*
X177121500Y-117177500D02*
X177121500Y-127190500D01*
X174434500Y-114490500D02*
X177121500Y-117177500D01*
D45*
X213245000Y-177038000D02*
X212800500Y-177482500D01*
X214376000Y-177038000D02*
X213245000Y-177038000D01*
X212778000Y-177460000D02*
X208534000Y-177460000D01*
X212800500Y-177482500D02*
X212778000Y-177460000D01*
X208534000Y-175260000D02*
X209613500Y-175260000D01*
X210707500Y-174166000D02*
X212153500Y-174166000D01*
X209613500Y-175260000D02*
X210707500Y-174166000D01*
D44*
X181859999Y-190718001D02*
X181859999Y-190694501D01*
X180935000Y-191643000D02*
X181859999Y-190718001D01*
X181859999Y-190694501D02*
X185547000Y-187007500D01*
X185524500Y-186985000D02*
X185524500Y-185102500D01*
X185547000Y-187007500D02*
X185524500Y-186985000D01*
X198397500Y-190413000D02*
X198397500Y-191833500D01*
X200914000Y-185801000D02*
X200914000Y-187896500D01*
X200914000Y-187896500D02*
X198397500Y-190413000D01*
D45*
X210632000Y-153794500D02*
X210632000Y-150529500D01*
X209743000Y-154683500D02*
X210632000Y-153794500D01*
D46*
X202327500Y-154683500D02*
X202327500Y-156290000D01*
X202327500Y-156290000D02*
X202501500Y-156464000D01*
X210308685Y-154683500D02*
X210374685Y-154749500D01*
X209743000Y-154683500D02*
X210308685Y-154683500D01*
X210374685Y-154749500D02*
X213487000Y-154749500D01*
X213487000Y-154749500D02*
X215265000Y-156527500D01*
X215265000Y-156527500D02*
X215265000Y-166687500D01*
X215265000Y-166687500D02*
X214693500Y-167259000D01*
X190690500Y-183134000D02*
X176403000Y-183134000D01*
X176178000Y-183359000D02*
X176178000Y-184152500D01*
X176403000Y-183134000D02*
X176178000Y-183359000D01*
X216584000Y-194930500D02*
X218315500Y-194930500D01*
X214757000Y-193103500D02*
X216584000Y-194930500D01*
X191911500Y-184196200D02*
X191897000Y-184181700D01*
X191911500Y-184851000D02*
X191911500Y-184196200D01*
X191897000Y-184181700D02*
X191897000Y-183515000D01*
X191897000Y-183515000D02*
X192468500Y-182943500D01*
X201041000Y-182943500D02*
X202819000Y-181165500D01*
X192468500Y-182943500D02*
X201041000Y-182943500D01*
X206184500Y-177800000D02*
X202819000Y-181165500D01*
X206184500Y-172783500D02*
X206184500Y-177800000D01*
X202835500Y-171955500D02*
X205356500Y-171955500D01*
X205356500Y-171955500D02*
X206184500Y-172783500D01*
D44*
X179578000Y-185102500D02*
X183324500Y-185102500D01*
X195311500Y-185801000D02*
X198714000Y-185801000D01*
D45*
X270129000Y-116332000D02*
X270129000Y-112077500D01*
X238887000Y-118554500D02*
X267906500Y-118554500D01*
X267906500Y-118554500D02*
X270129000Y-116332000D01*
D50*
G36*
X268033500Y-86296500D02*
G01*
X251777500Y-86296500D01*
X251777500Y-71310500D01*
X268033500Y-71310500D01*
X268033500Y-86296500D01*
X268033500Y-86296500D01*
G37*
X268033500Y-86296500D02*
X251777500Y-86296500D01*
X251777500Y-71310500D01*
X268033500Y-71310500D01*
X268033500Y-86296500D01*
G36*
X183324500Y-86296500D02*
G01*
X167068500Y-86296500D01*
X167068500Y-71310500D01*
X183324500Y-71310500D01*
X183324500Y-86296500D01*
X183324500Y-86296500D01*
G37*
X183324500Y-86296500D02*
X167068500Y-86296500D01*
X167068500Y-71310500D01*
X183324500Y-71310500D01*
X183324500Y-86296500D01*
G36*
X215201500Y-74358500D02*
G01*
X203316106Y-74358500D01*
X198691500Y-69733894D01*
X198691500Y-67563678D01*
X208749500Y-67563678D01*
X208749500Y-68135322D01*
X208861022Y-68695982D01*
X209079781Y-69224113D01*
X209397369Y-69699417D01*
X209801583Y-70103631D01*
X210276887Y-70421219D01*
X210805018Y-70639978D01*
X211365678Y-70751500D01*
X211937322Y-70751500D01*
X212497982Y-70639978D01*
X213026113Y-70421219D01*
X213501417Y-70103631D01*
X213905631Y-69699417D01*
X214223219Y-69224113D01*
X214441978Y-68695982D01*
X214553500Y-68135322D01*
X214553500Y-67563678D01*
X214441978Y-67003018D01*
X214223219Y-66474887D01*
X213905631Y-65999583D01*
X213501417Y-65595369D01*
X213026113Y-65277781D01*
X212497982Y-65059022D01*
X211937322Y-64947500D01*
X211365678Y-64947500D01*
X210805018Y-65059022D01*
X210276887Y-65277781D01*
X209801583Y-65595369D01*
X209397369Y-65999583D01*
X209079781Y-66474887D01*
X208861022Y-67003018D01*
X208749500Y-67563678D01*
X198691500Y-67563678D01*
X198691500Y-51117500D01*
X215201500Y-51117500D01*
X215201500Y-74358500D01*
X215201500Y-74358500D01*
G37*
X215201500Y-74358500D02*
X203316106Y-74358500D01*
X198691500Y-69733894D01*
X198691500Y-67563678D01*
X208749500Y-67563678D01*
X208749500Y-68135322D01*
X208861022Y-68695982D01*
X209079781Y-69224113D01*
X209397369Y-69699417D01*
X209801583Y-70103631D01*
X210276887Y-70421219D01*
X210805018Y-70639978D01*
X211365678Y-70751500D01*
X211937322Y-70751500D01*
X212497982Y-70639978D01*
X213026113Y-70421219D01*
X213501417Y-70103631D01*
X213905631Y-69699417D01*
X214223219Y-69224113D01*
X214441978Y-68695982D01*
X214553500Y-68135322D01*
X214553500Y-67563678D01*
X214441978Y-67003018D01*
X214223219Y-66474887D01*
X213905631Y-65999583D01*
X213501417Y-65595369D01*
X213026113Y-65277781D01*
X212497982Y-65059022D01*
X211937322Y-64947500D01*
X211365678Y-64947500D01*
X210805018Y-65059022D01*
X210276887Y-65277781D01*
X209801583Y-65595369D01*
X209397369Y-65999583D01*
X209079781Y-66474887D01*
X208861022Y-67003018D01*
X208749500Y-67563678D01*
X198691500Y-67563678D01*
X198691500Y-51117500D01*
X215201500Y-51117500D01*
X215201500Y-74358500D01*
G36*
X235013500Y-69733894D02*
G01*
X230388894Y-74358500D01*
X218503500Y-74358500D01*
X218503500Y-67563678D01*
X218749500Y-67563678D01*
X218749500Y-68135322D01*
X218861022Y-68695982D01*
X219079781Y-69224113D01*
X219397369Y-69699417D01*
X219801583Y-70103631D01*
X220276887Y-70421219D01*
X220805018Y-70639978D01*
X221365678Y-70751500D01*
X221937322Y-70751500D01*
X222497982Y-70639978D01*
X223026113Y-70421219D01*
X223501417Y-70103631D01*
X223905631Y-69699417D01*
X224223219Y-69224113D01*
X224441978Y-68695982D01*
X224553500Y-68135322D01*
X224553500Y-67563678D01*
X224441978Y-67003018D01*
X224223219Y-66474887D01*
X223905631Y-65999583D01*
X223501417Y-65595369D01*
X223026113Y-65277781D01*
X222497982Y-65059022D01*
X221937322Y-64947500D01*
X221365678Y-64947500D01*
X220805018Y-65059022D01*
X220276887Y-65277781D01*
X219801583Y-65595369D01*
X219397369Y-65999583D01*
X219079781Y-66474887D01*
X218861022Y-67003018D01*
X218749500Y-67563678D01*
X218503500Y-67563678D01*
X218503500Y-51117500D01*
X235013500Y-51117500D01*
X235013500Y-69733894D01*
X235013500Y-69733894D01*
G37*
X235013500Y-69733894D02*
X230388894Y-74358500D01*
X218503500Y-74358500D01*
X218503500Y-67563678D01*
X218749500Y-67563678D01*
X218749500Y-68135322D01*
X218861022Y-68695982D01*
X219079781Y-69224113D01*
X219397369Y-69699417D01*
X219801583Y-70103631D01*
X220276887Y-70421219D01*
X220805018Y-70639978D01*
X221365678Y-70751500D01*
X221937322Y-70751500D01*
X222497982Y-70639978D01*
X223026113Y-70421219D01*
X223501417Y-70103631D01*
X223905631Y-69699417D01*
X224223219Y-69224113D01*
X224441978Y-68695982D01*
X224553500Y-68135322D01*
X224553500Y-67563678D01*
X224441978Y-67003018D01*
X224223219Y-66474887D01*
X223905631Y-65999583D01*
X223501417Y-65595369D01*
X223026113Y-65277781D01*
X222497982Y-65059022D01*
X221937322Y-64947500D01*
X221365678Y-64947500D01*
X220805018Y-65059022D01*
X220276887Y-65277781D01*
X219801583Y-65595369D01*
X219397369Y-65999583D01*
X219079781Y-66474887D01*
X218861022Y-67003018D01*
X218749500Y-67563678D01*
X218503500Y-67563678D01*
X218503500Y-51117500D01*
X235013500Y-51117500D01*
X235013500Y-69733894D01*
G36*
X200757549Y-76096040D02*
G01*
X200776219Y-76112511D01*
X200797742Y-76125023D01*
X200821294Y-76133096D01*
X200850500Y-76136500D01*
X215074500Y-76136500D01*
X215074500Y-80454500D01*
X202247500Y-80454500D01*
X202222724Y-80456940D01*
X202198899Y-80464167D01*
X202176943Y-80475903D01*
X202157697Y-80491697D01*
X202141903Y-80510943D01*
X202130167Y-80532899D01*
X202122940Y-80556724D01*
X202120500Y-80581500D01*
X202120500Y-95694500D01*
X186372500Y-95694500D01*
X186372500Y-72453500D01*
X197366219Y-72453500D01*
X200757549Y-76096040D01*
X200757549Y-76096040D01*
G37*
X200757549Y-76096040D02*
X200776219Y-76112511D01*
X200797742Y-76125023D01*
X200821294Y-76133096D01*
X200850500Y-76136500D01*
X215074500Y-76136500D01*
X215074500Y-80454500D01*
X202247500Y-80454500D01*
X202222724Y-80456940D01*
X202198899Y-80464167D01*
X202176943Y-80475903D01*
X202157697Y-80491697D01*
X202141903Y-80510943D01*
X202130167Y-80532899D01*
X202122940Y-80556724D01*
X202120500Y-80581500D01*
X202120500Y-95694500D01*
X186372500Y-95694500D01*
X186372500Y-72453500D01*
X197366219Y-72453500D01*
X200757549Y-76096040D01*
G36*
X247840500Y-84899500D02*
G01*
X236711021Y-84899500D01*
X231793535Y-80738550D01*
X231773044Y-80724409D01*
X231750189Y-80714537D01*
X231725847Y-80709313D01*
X231711500Y-80708500D01*
X218441682Y-80708500D01*
X218501840Y-76136500D01*
X231711500Y-76136500D01*
X231736276Y-76134060D01*
X231760101Y-76126833D01*
X231787281Y-76111413D01*
X236706543Y-72453500D01*
X247840500Y-72453500D01*
X247840500Y-84899500D01*
X247840500Y-84899500D01*
G37*
X247840500Y-84899500D02*
X236711021Y-84899500D01*
X231793535Y-80738550D01*
X231773044Y-80724409D01*
X231750189Y-80714537D01*
X231725847Y-80709313D01*
X231711500Y-80708500D01*
X218441682Y-80708500D01*
X218501840Y-76136500D01*
X231711500Y-76136500D01*
X231736276Y-76134060D01*
X231760101Y-76126833D01*
X231787281Y-76111413D01*
X236706543Y-72453500D01*
X247840500Y-72453500D01*
X247840500Y-84899500D01*
G36*
X210736113Y-120591013D02*
G01*
X210832339Y-120669983D01*
X210942122Y-120728664D01*
X211061244Y-120764799D01*
X211185126Y-120777000D01*
X214882345Y-120777000D01*
X214821160Y-132524500D01*
X180086000Y-132524500D01*
X180061224Y-132526940D01*
X180037399Y-132534167D01*
X180015443Y-132545903D01*
X179996197Y-132561697D01*
X179980403Y-132580943D01*
X179968667Y-132602899D01*
X179961440Y-132626724D01*
X179959000Y-132651500D01*
X179959000Y-133631179D01*
X179909862Y-133690153D01*
X179850366Y-133799496D01*
X179813344Y-133918345D01*
X179800221Y-134042133D01*
X179777470Y-137096500D01*
X173799500Y-137096500D01*
X173799500Y-131195374D01*
X173908335Y-129617255D01*
X204303500Y-129617255D01*
X204303500Y-129937745D01*
X204366025Y-130252078D01*
X204488672Y-130548173D01*
X204666727Y-130814652D01*
X204893348Y-131041273D01*
X205159827Y-131219328D01*
X205455922Y-131341975D01*
X205770255Y-131404500D01*
X206090745Y-131404500D01*
X206405078Y-131341975D01*
X206701173Y-131219328D01*
X206967652Y-131041273D01*
X207194273Y-130814652D01*
X207372328Y-130548173D01*
X207494975Y-130252078D01*
X207557500Y-129937745D01*
X207557500Y-129617255D01*
X207494975Y-129302922D01*
X207372328Y-129006827D01*
X207194273Y-128740348D01*
X206967652Y-128513727D01*
X206701173Y-128335672D01*
X206405078Y-128213025D01*
X206090745Y-128150500D01*
X205770255Y-128150500D01*
X205455922Y-128213025D01*
X205159827Y-128335672D01*
X204893348Y-128513727D01*
X204666727Y-128740348D01*
X204488672Y-129006827D01*
X204366025Y-129302922D01*
X204303500Y-129617255D01*
X173908335Y-129617255D01*
X173918043Y-129476500D01*
X184721500Y-129476500D01*
X184746276Y-129474060D01*
X184770101Y-129466833D01*
X184792057Y-129455097D01*
X184811303Y-129439303D01*
X184827097Y-129420057D01*
X184838833Y-129398101D01*
X184846060Y-129374276D01*
X184848500Y-129349500D01*
X184848500Y-120586500D01*
X210732409Y-120586500D01*
X210736113Y-120591013D01*
X210736113Y-120591013D01*
G37*
X210736113Y-120591013D02*
X210832339Y-120669983D01*
X210942122Y-120728664D01*
X211061244Y-120764799D01*
X211185126Y-120777000D01*
X214882345Y-120777000D01*
X214821160Y-132524500D01*
X180086000Y-132524500D01*
X180061224Y-132526940D01*
X180037399Y-132534167D01*
X180015443Y-132545903D01*
X179996197Y-132561697D01*
X179980403Y-132580943D01*
X179968667Y-132602899D01*
X179961440Y-132626724D01*
X179959000Y-132651500D01*
X179959000Y-133631179D01*
X179909862Y-133690153D01*
X179850366Y-133799496D01*
X179813344Y-133918345D01*
X179800221Y-134042133D01*
X179777470Y-137096500D01*
X173799500Y-137096500D01*
X173799500Y-131195374D01*
X173908335Y-129617255D01*
X204303500Y-129617255D01*
X204303500Y-129937745D01*
X204366025Y-130252078D01*
X204488672Y-130548173D01*
X204666727Y-130814652D01*
X204893348Y-131041273D01*
X205159827Y-131219328D01*
X205455922Y-131341975D01*
X205770255Y-131404500D01*
X206090745Y-131404500D01*
X206405078Y-131341975D01*
X206701173Y-131219328D01*
X206967652Y-131041273D01*
X207194273Y-130814652D01*
X207372328Y-130548173D01*
X207494975Y-130252078D01*
X207557500Y-129937745D01*
X207557500Y-129617255D01*
X207494975Y-129302922D01*
X207372328Y-129006827D01*
X207194273Y-128740348D01*
X206967652Y-128513727D01*
X206701173Y-128335672D01*
X206405078Y-128213025D01*
X206090745Y-128150500D01*
X205770255Y-128150500D01*
X205455922Y-128213025D01*
X205159827Y-128335672D01*
X204893348Y-128513727D01*
X204666727Y-128740348D01*
X204488672Y-129006827D01*
X204366025Y-129302922D01*
X204303500Y-129617255D01*
X173908335Y-129617255D01*
X173918043Y-129476500D01*
X184721500Y-129476500D01*
X184746276Y-129474060D01*
X184770101Y-129466833D01*
X184792057Y-129455097D01*
X184811303Y-129439303D01*
X184827097Y-129420057D01*
X184838833Y-129398101D01*
X184846060Y-129374276D01*
X184848500Y-129349500D01*
X184848500Y-120586500D01*
X210732409Y-120586500D01*
X210736113Y-120591013D01*
G36*
X182498996Y-134175405D02*
G01*
X182498989Y-134411392D01*
X182479688Y-134475018D01*
X182467428Y-134599500D01*
X182467428Y-136799500D01*
X182479688Y-136923982D01*
X182498910Y-136987347D01*
X182498871Y-138239496D01*
X182501311Y-138264273D01*
X182508537Y-138288097D01*
X182520272Y-138310054D01*
X182536066Y-138329300D01*
X182555310Y-138345094D01*
X182577267Y-138356831D01*
X182601091Y-138364059D01*
X182624869Y-138366496D01*
X186127428Y-138394126D01*
X186127428Y-139331500D01*
X186139688Y-139455982D01*
X186175998Y-139575680D01*
X186234963Y-139685994D01*
X186314315Y-139782685D01*
X186411006Y-139862037D01*
X186521320Y-139921002D01*
X186641018Y-139957312D01*
X186765500Y-139969572D01*
X188265500Y-139969572D01*
X188389982Y-139957312D01*
X188509680Y-139921002D01*
X188619994Y-139862037D01*
X188716685Y-139782685D01*
X188796037Y-139685994D01*
X188855002Y-139575680D01*
X188891312Y-139455982D01*
X188903572Y-139331500D01*
X188903572Y-138416025D01*
X206144734Y-138552032D01*
X206129702Y-162463406D01*
X206041450Y-162676465D01*
X205981500Y-162977853D01*
X205981500Y-163285147D01*
X206041450Y-163586535D01*
X206128863Y-163797569D01*
X206123952Y-171609402D01*
X205940627Y-171426077D01*
X205915969Y-171396031D01*
X205796072Y-171297634D01*
X205659283Y-171224518D01*
X205510857Y-171179494D01*
X205395173Y-171168100D01*
X205395163Y-171168100D01*
X205356500Y-171164292D01*
X205317837Y-171168100D01*
X204053019Y-171168100D01*
X203969994Y-171099963D01*
X203859680Y-171040998D01*
X203739982Y-171004688D01*
X203615500Y-170992428D01*
X202055500Y-170992428D01*
X201931018Y-171004688D01*
X201811320Y-171040998D01*
X201701006Y-171099963D01*
X201604315Y-171179315D01*
X201553572Y-171241146D01*
X201553572Y-170680500D01*
X201541312Y-170556018D01*
X201533571Y-170530500D01*
X201541312Y-170504982D01*
X201553572Y-170380500D01*
X201553572Y-169730500D01*
X201541312Y-169606018D01*
X201505002Y-169486320D01*
X201446037Y-169376006D01*
X201366685Y-169279315D01*
X201269994Y-169199963D01*
X201159680Y-169140998D01*
X201039982Y-169104688D01*
X200939400Y-169094782D01*
X200939400Y-168439674D01*
X200956494Y-168430537D01*
X201053185Y-168351185D01*
X201132537Y-168254494D01*
X201191502Y-168144180D01*
X201227812Y-168024482D01*
X201240072Y-167900000D01*
X201240072Y-166700000D01*
X201227812Y-166575518D01*
X201191502Y-166455820D01*
X201132537Y-166345506D01*
X201053185Y-166248815D01*
X200993704Y-166200000D01*
X201053185Y-166151185D01*
X201132537Y-166054494D01*
X201191502Y-165944180D01*
X201227812Y-165824482D01*
X201240072Y-165700000D01*
X201240072Y-164500000D01*
X201227812Y-164375518D01*
X201191502Y-164255820D01*
X201132537Y-164145506D01*
X201121073Y-164131537D01*
X201147226Y-164068398D01*
X201187000Y-163868439D01*
X201187000Y-163664561D01*
X201147226Y-163464602D01*
X201069205Y-163276244D01*
X200955937Y-163106726D01*
X200811774Y-162962563D01*
X200642256Y-162849295D01*
X200453898Y-162771274D01*
X200253939Y-162731500D01*
X200050061Y-162731500D01*
X199850102Y-162771274D01*
X199661744Y-162849295D01*
X199492226Y-162962563D01*
X199348063Y-163106726D01*
X199234795Y-163276244D01*
X199156774Y-163464602D01*
X199117000Y-163664561D01*
X199117000Y-163868439D01*
X199156774Y-164068398D01*
X199182927Y-164131537D01*
X199171463Y-164145506D01*
X199112498Y-164255820D01*
X199076188Y-164375518D01*
X199063928Y-164500000D01*
X199063928Y-165700000D01*
X199076188Y-165824482D01*
X199112498Y-165944180D01*
X199171463Y-166054494D01*
X199250815Y-166151185D01*
X199310296Y-166200000D01*
X199250815Y-166248815D01*
X199171463Y-166345506D01*
X199112498Y-166455820D01*
X199076188Y-166575518D01*
X199063928Y-166700000D01*
X199063928Y-167900000D01*
X199076188Y-168024482D01*
X199112498Y-168144180D01*
X199171463Y-168254494D01*
X199250815Y-168351185D01*
X199347506Y-168430537D01*
X199364600Y-168439674D01*
X199364601Y-169092428D01*
X199355500Y-169092428D01*
X199231018Y-169104688D01*
X199111320Y-169140998D01*
X199001006Y-169199963D01*
X198917981Y-169268100D01*
X197648162Y-169268100D01*
X197609499Y-169264292D01*
X197570836Y-169268100D01*
X197570827Y-169268100D01*
X197455143Y-169279494D01*
X197306717Y-169324518D01*
X197169928Y-169397634D01*
X197050031Y-169496031D01*
X197025378Y-169526071D01*
X196892076Y-169659373D01*
X196862031Y-169684031D01*
X196763634Y-169803929D01*
X196690518Y-169940718D01*
X196645494Y-170089144D01*
X196634100Y-170204828D01*
X196634100Y-170204837D01*
X196630292Y-170243500D01*
X196634100Y-170282163D01*
X196634101Y-171168100D01*
X196115519Y-171168100D01*
X196032494Y-171099963D01*
X195922180Y-171040998D01*
X195802482Y-171004688D01*
X195678000Y-170992428D01*
X194118000Y-170992428D01*
X193993518Y-171004688D01*
X193873820Y-171040998D01*
X193763506Y-171099963D01*
X193666815Y-171179315D01*
X193616072Y-171241146D01*
X193616072Y-170680500D01*
X193603812Y-170556018D01*
X193596071Y-170530500D01*
X193603812Y-170504982D01*
X193616072Y-170380500D01*
X193616072Y-169730500D01*
X193603812Y-169606018D01*
X193567502Y-169486320D01*
X193508537Y-169376006D01*
X193429185Y-169279315D01*
X193332494Y-169199963D01*
X193222180Y-169140998D01*
X193102482Y-169104688D01*
X192978000Y-169092428D01*
X191418000Y-169092428D01*
X191293518Y-169104688D01*
X191173820Y-169140998D01*
X191063506Y-169199963D01*
X190980500Y-169268084D01*
X190941999Y-169264292D01*
X190903336Y-169268100D01*
X190903327Y-169268100D01*
X190787643Y-169279494D01*
X190639217Y-169324518D01*
X190502428Y-169397634D01*
X190502426Y-169397635D01*
X190502427Y-169397635D01*
X190412569Y-169471379D01*
X190412567Y-169471381D01*
X190382531Y-169496031D01*
X190357881Y-169526067D01*
X188713350Y-171170600D01*
X188231112Y-171170600D01*
X188141994Y-171097463D01*
X188031680Y-171038498D01*
X187911982Y-171002188D01*
X187787500Y-170989928D01*
X186227500Y-170989928D01*
X186103018Y-171002188D01*
X185983320Y-171038498D01*
X185873006Y-171097463D01*
X185776315Y-171176815D01*
X185725572Y-171238646D01*
X185725572Y-170678000D01*
X185713312Y-170553518D01*
X185705571Y-170528000D01*
X185713312Y-170502482D01*
X185725572Y-170378000D01*
X185725572Y-169728000D01*
X185713312Y-169603518D01*
X185677002Y-169483820D01*
X185618037Y-169373506D01*
X185538685Y-169276815D01*
X185441994Y-169197463D01*
X185331680Y-169138498D01*
X185211982Y-169102188D01*
X185087500Y-169089928D01*
X183527500Y-169089928D01*
X183403018Y-169102188D01*
X183283320Y-169138498D01*
X183173006Y-169197463D01*
X183131961Y-169231147D01*
X182989256Y-169135795D01*
X182800898Y-169057774D01*
X182600939Y-169018000D01*
X182397061Y-169018000D01*
X182197102Y-169057774D01*
X182008744Y-169135795D01*
X181839226Y-169249063D01*
X181695063Y-169393226D01*
X181581795Y-169562744D01*
X181503774Y-169751102D01*
X181464000Y-169951061D01*
X181464000Y-170154939D01*
X181476066Y-170215600D01*
X180536651Y-170215600D01*
X180111400Y-169790349D01*
X180111400Y-159426311D01*
X180127937Y-159409774D01*
X180241205Y-159240256D01*
X180319226Y-159051898D01*
X180359000Y-158851939D01*
X180359000Y-158828550D01*
X182964933Y-156222619D01*
X182994969Y-156197969D01*
X183024405Y-156162102D01*
X183093365Y-156078073D01*
X183093366Y-156078072D01*
X183166482Y-155941283D01*
X183190240Y-155862962D01*
X183218274Y-156003898D01*
X183296295Y-156192256D01*
X183409563Y-156361774D01*
X183553726Y-156505937D01*
X183723244Y-156619205D01*
X183911602Y-156697226D01*
X184111561Y-156737000D01*
X184315439Y-156737000D01*
X184515398Y-156697226D01*
X184703756Y-156619205D01*
X184873274Y-156505937D01*
X185017437Y-156361774D01*
X185130705Y-156192256D01*
X185208726Y-156003898D01*
X185248500Y-155803939D01*
X185248500Y-155600061D01*
X185245504Y-155585000D01*
X185331494Y-155539037D01*
X185428185Y-155459685D01*
X185507537Y-155362994D01*
X185547000Y-155289165D01*
X185586463Y-155362994D01*
X185665815Y-155459685D01*
X185762506Y-155539037D01*
X185872820Y-155598002D01*
X185992518Y-155634312D01*
X186117000Y-155646572D01*
X187677000Y-155646572D01*
X187801482Y-155634312D01*
X187921180Y-155598002D01*
X188031494Y-155539037D01*
X188114519Y-155470900D01*
X188321151Y-155470900D01*
X188385200Y-155477208D01*
X188539557Y-155462006D01*
X188687982Y-155416982D01*
X188824772Y-155343866D01*
X188944669Y-155245469D01*
X188969327Y-155215423D01*
X189077600Y-155107150D01*
X189077601Y-159693848D01*
X188522850Y-160248600D01*
X188181066Y-160248600D01*
X188094994Y-160177963D01*
X187984680Y-160118998D01*
X187864982Y-160082688D01*
X187740500Y-160070428D01*
X186180500Y-160070428D01*
X186056018Y-160082688D01*
X185936320Y-160118998D01*
X185826006Y-160177963D01*
X185729315Y-160257315D01*
X185678572Y-160319146D01*
X185678572Y-159758500D01*
X185666312Y-159634018D01*
X185658571Y-159608500D01*
X185666312Y-159582982D01*
X185678572Y-159458500D01*
X185678572Y-158808500D01*
X185666312Y-158684018D01*
X185630002Y-158564320D01*
X185571037Y-158454006D01*
X185491685Y-158357315D01*
X185394994Y-158277963D01*
X185284680Y-158218998D01*
X185164982Y-158182688D01*
X185040500Y-158170428D01*
X183480500Y-158170428D01*
X183356018Y-158182688D01*
X183236320Y-158218998D01*
X183126006Y-158277963D01*
X183029315Y-158357315D01*
X182949963Y-158454006D01*
X182890998Y-158564320D01*
X182854688Y-158684018D01*
X182842428Y-158808500D01*
X182842428Y-159105476D01*
X182800898Y-159088274D01*
X182600939Y-159048500D01*
X182397061Y-159048500D01*
X182197102Y-159088274D01*
X182008744Y-159166295D01*
X181839226Y-159279563D01*
X181695063Y-159423726D01*
X181581795Y-159593244D01*
X181503774Y-159781602D01*
X181464000Y-159981561D01*
X181464000Y-160185439D01*
X181503774Y-160385398D01*
X181581795Y-160573756D01*
X181695063Y-160743274D01*
X181839226Y-160887437D01*
X182008744Y-161000705D01*
X182197102Y-161078726D01*
X182397061Y-161118500D01*
X182600939Y-161118500D01*
X182800898Y-161078726D01*
X182842428Y-161061524D01*
X182842428Y-161358500D01*
X182854688Y-161482982D01*
X182890998Y-161602680D01*
X182949963Y-161712994D01*
X183029315Y-161809685D01*
X183126006Y-161889037D01*
X183236320Y-161948002D01*
X183265887Y-161956971D01*
X183242000Y-162077061D01*
X183242000Y-162280939D01*
X183281774Y-162480898D01*
X183359795Y-162669256D01*
X183473063Y-162838774D01*
X183617226Y-162982937D01*
X183786744Y-163096205D01*
X183975102Y-163174226D01*
X184175061Y-163214000D01*
X184378939Y-163214000D01*
X184578898Y-163174226D01*
X184767256Y-163096205D01*
X184936774Y-162982937D01*
X185080937Y-162838774D01*
X185194205Y-162669256D01*
X185272226Y-162480898D01*
X185312000Y-162280939D01*
X185312000Y-162077061D01*
X185286170Y-161947205D01*
X185394994Y-161889037D01*
X185491685Y-161809685D01*
X185571037Y-161712994D01*
X185610500Y-161639165D01*
X185649963Y-161712994D01*
X185729315Y-161809685D01*
X185826006Y-161889037D01*
X185936320Y-161948002D01*
X186056018Y-161984312D01*
X186180500Y-161996572D01*
X187740500Y-161996572D01*
X187864982Y-161984312D01*
X187984680Y-161948002D01*
X188094994Y-161889037D01*
X188174973Y-161823400D01*
X188810337Y-161823400D01*
X188849000Y-161827208D01*
X188887663Y-161823400D01*
X188887673Y-161823400D01*
X189003357Y-161812006D01*
X189151783Y-161766982D01*
X189288572Y-161693866D01*
X189408469Y-161595469D01*
X189433128Y-161565423D01*
X190394428Y-160604123D01*
X190424469Y-160579469D01*
X190479513Y-160512398D01*
X190522866Y-160459573D01*
X190595982Y-160322783D01*
X190602129Y-160302518D01*
X190641006Y-160174357D01*
X190652400Y-160058673D01*
X190652400Y-160058663D01*
X190656208Y-160020000D01*
X190652400Y-159981337D01*
X190652400Y-156492611D01*
X190729226Y-156569437D01*
X190898744Y-156682705D01*
X191087102Y-156760726D01*
X191287061Y-156800500D01*
X191490939Y-156800500D01*
X191690898Y-156760726D01*
X191879256Y-156682705D01*
X192048774Y-156569437D01*
X192192937Y-156425274D01*
X192306205Y-156255756D01*
X192384226Y-156067398D01*
X192424000Y-155867439D01*
X192424000Y-155663561D01*
X192409587Y-155591103D01*
X192506994Y-155539037D01*
X192603685Y-155459685D01*
X192683037Y-155362994D01*
X192722500Y-155289165D01*
X192761963Y-155362994D01*
X192841315Y-155459685D01*
X192938006Y-155539037D01*
X193048320Y-155598002D01*
X193168018Y-155634312D01*
X193292500Y-155646572D01*
X194852500Y-155646572D01*
X194976982Y-155634312D01*
X195096680Y-155598002D01*
X195206994Y-155539037D01*
X195290019Y-155470900D01*
X196496337Y-155470900D01*
X196535000Y-155474708D01*
X196573663Y-155470900D01*
X196573673Y-155470900D01*
X196689357Y-155459506D01*
X196837783Y-155414482D01*
X196974572Y-155341366D01*
X197094469Y-155242969D01*
X197119127Y-155212923D01*
X197205601Y-155126449D01*
X197205600Y-160867689D01*
X197189063Y-160884226D01*
X197075795Y-161053744D01*
X196997774Y-161242102D01*
X196958000Y-161442061D01*
X196958000Y-161645939D01*
X196997774Y-161845898D01*
X197075795Y-162034256D01*
X197189063Y-162203774D01*
X197333226Y-162347937D01*
X197502744Y-162461205D01*
X197691102Y-162539226D01*
X197891061Y-162579000D01*
X198094939Y-162579000D01*
X198294898Y-162539226D01*
X198483256Y-162461205D01*
X198652774Y-162347937D01*
X198796937Y-162203774D01*
X198910205Y-162034256D01*
X198988226Y-161845898D01*
X199028000Y-161645939D01*
X199028000Y-161442061D01*
X198988226Y-161242102D01*
X198910205Y-161053744D01*
X198796937Y-160884226D01*
X198780400Y-160867689D01*
X198780400Y-156399482D01*
X198840063Y-156488774D01*
X198984226Y-156632937D01*
X199153744Y-156746205D01*
X199342102Y-156824226D01*
X199542061Y-156864000D01*
X199745939Y-156864000D01*
X199945898Y-156824226D01*
X200134256Y-156746205D01*
X200303774Y-156632937D01*
X200447937Y-156488774D01*
X200561205Y-156319256D01*
X200639226Y-156130898D01*
X200679000Y-155930939D01*
X200679000Y-155727061D01*
X200653170Y-155597205D01*
X200761994Y-155539037D01*
X200858685Y-155459685D01*
X200938037Y-155362994D01*
X200977500Y-155289165D01*
X201016963Y-155362994D01*
X201096315Y-155459685D01*
X201193006Y-155539037D01*
X201303320Y-155598002D01*
X201423018Y-155634312D01*
X201540101Y-155645843D01*
X201540101Y-156080437D01*
X201506274Y-156162102D01*
X201466500Y-156362061D01*
X201466500Y-156565939D01*
X201506274Y-156765898D01*
X201584295Y-156954256D01*
X201697563Y-157123774D01*
X201841726Y-157267937D01*
X202011244Y-157381205D01*
X202199602Y-157459226D01*
X202399561Y-157499000D01*
X202603439Y-157499000D01*
X202803398Y-157459226D01*
X202991756Y-157381205D01*
X203161274Y-157267937D01*
X203305437Y-157123774D01*
X203418705Y-156954256D01*
X203496726Y-156765898D01*
X203536500Y-156565939D01*
X203536500Y-156362061D01*
X203496726Y-156162102D01*
X203418705Y-155973744D01*
X203305437Y-155804226D01*
X203161274Y-155660063D01*
X203136769Y-155643689D01*
X203231982Y-155634312D01*
X203351680Y-155598002D01*
X203461994Y-155539037D01*
X203558685Y-155459685D01*
X203638037Y-155362994D01*
X203697002Y-155252680D01*
X203733312Y-155132982D01*
X203745572Y-155008500D01*
X203745572Y-154358500D01*
X203733312Y-154234018D01*
X203697002Y-154114320D01*
X203638037Y-154004006D01*
X203558685Y-153907315D01*
X203461994Y-153827963D01*
X203351680Y-153768998D01*
X203231982Y-153732688D01*
X203107500Y-153720428D01*
X201547500Y-153720428D01*
X201423018Y-153732688D01*
X201303320Y-153768998D01*
X201193006Y-153827963D01*
X201096315Y-153907315D01*
X201045572Y-153969146D01*
X201045572Y-153408500D01*
X201033312Y-153284018D01*
X201025571Y-153258500D01*
X201033312Y-153232982D01*
X201045572Y-153108500D01*
X201045572Y-152458500D01*
X201033312Y-152334018D01*
X200997002Y-152214320D01*
X200938037Y-152104006D01*
X200858685Y-152007315D01*
X200761994Y-151927963D01*
X200651680Y-151868998D01*
X200531982Y-151832688D01*
X200431400Y-151822782D01*
X200431400Y-150575674D01*
X200448494Y-150566537D01*
X200545185Y-150487185D01*
X200624537Y-150390494D01*
X200683502Y-150280180D01*
X200719812Y-150160482D01*
X200732072Y-150036000D01*
X200732072Y-148836000D01*
X200719812Y-148711518D01*
X200683502Y-148591820D01*
X200624537Y-148481506D01*
X200545185Y-148384815D01*
X200485704Y-148336000D01*
X200545185Y-148287185D01*
X200624537Y-148190494D01*
X200683502Y-148080180D01*
X200719812Y-147960482D01*
X200732072Y-147836000D01*
X200732072Y-146636000D01*
X200719812Y-146511518D01*
X200683502Y-146391820D01*
X200624537Y-146281506D01*
X200583756Y-146231814D01*
X200639226Y-146097898D01*
X200679000Y-145897939D01*
X200679000Y-145694061D01*
X200639226Y-145494102D01*
X200561205Y-145305744D01*
X200447937Y-145136226D01*
X200303774Y-144992063D01*
X200134256Y-144878795D01*
X199945898Y-144800774D01*
X199745939Y-144761000D01*
X199542061Y-144761000D01*
X199342102Y-144800774D01*
X199153744Y-144878795D01*
X198984226Y-144992063D01*
X198840063Y-145136226D01*
X198726795Y-145305744D01*
X198648774Y-145494102D01*
X198609000Y-145694061D01*
X198609000Y-145897939D01*
X198648774Y-146097898D01*
X198704244Y-146231814D01*
X198663463Y-146281506D01*
X198604498Y-146391820D01*
X198568188Y-146511518D01*
X198555928Y-146636000D01*
X198555928Y-147836000D01*
X198568188Y-147960482D01*
X198604498Y-148080180D01*
X198663463Y-148190494D01*
X198742815Y-148287185D01*
X198802296Y-148336000D01*
X198742815Y-148384815D01*
X198663463Y-148481506D01*
X198604498Y-148591820D01*
X198568188Y-148711518D01*
X198555928Y-148836000D01*
X198555928Y-150036000D01*
X198568188Y-150160482D01*
X198604498Y-150280180D01*
X198663463Y-150390494D01*
X198742815Y-150487185D01*
X198839506Y-150566537D01*
X198856600Y-150575674D01*
X198856601Y-151820428D01*
X198847500Y-151820428D01*
X198723018Y-151832688D01*
X198603320Y-151868998D01*
X198493006Y-151927963D01*
X198414962Y-151992012D01*
X198398836Y-151993600D01*
X198398827Y-151993600D01*
X198283143Y-152004994D01*
X198134717Y-152050018D01*
X197997928Y-152123134D01*
X197997926Y-152123135D01*
X197997927Y-152123135D01*
X197908069Y-152196879D01*
X197908067Y-152196881D01*
X197878031Y-152221531D01*
X197853381Y-152251567D01*
X196208850Y-153896100D01*
X195290019Y-153896100D01*
X195206994Y-153827963D01*
X195096680Y-153768998D01*
X194976982Y-153732688D01*
X194852500Y-153720428D01*
X193292500Y-153720428D01*
X193168018Y-153732688D01*
X193048320Y-153768998D01*
X192938006Y-153827963D01*
X192841315Y-153907315D01*
X192790572Y-153969146D01*
X192790572Y-153408500D01*
X192778312Y-153284018D01*
X192770571Y-153258500D01*
X192778312Y-153232982D01*
X192790572Y-153108500D01*
X192790572Y-152458500D01*
X192778312Y-152334018D01*
X192742002Y-152214320D01*
X192683037Y-152104006D01*
X192603685Y-152007315D01*
X192506994Y-151927963D01*
X192396680Y-151868998D01*
X192276982Y-151832688D01*
X192152500Y-151820428D01*
X190592500Y-151820428D01*
X190468018Y-151832688D01*
X190348320Y-151868998D01*
X190238006Y-151927963D01*
X190142154Y-152006626D01*
X190133343Y-152007494D01*
X189984917Y-152052518D01*
X189848128Y-152125634D01*
X189848126Y-152125635D01*
X189848127Y-152125635D01*
X189758269Y-152199379D01*
X189758267Y-152199381D01*
X189728231Y-152224031D01*
X189703581Y-152254067D01*
X188085426Y-153872224D01*
X188031494Y-153827963D01*
X187921180Y-153768998D01*
X187801482Y-153732688D01*
X187677000Y-153720428D01*
X186117000Y-153720428D01*
X185992518Y-153732688D01*
X185872820Y-153768998D01*
X185762506Y-153827963D01*
X185665815Y-153907315D01*
X185615072Y-153969146D01*
X185615072Y-153408500D01*
X185602812Y-153284018D01*
X185595071Y-153258500D01*
X185602812Y-153232982D01*
X185615072Y-153108500D01*
X185615072Y-152458500D01*
X185602812Y-152334018D01*
X185566502Y-152214320D01*
X185507537Y-152104006D01*
X185428185Y-152007315D01*
X185331494Y-151927963D01*
X185221180Y-151868998D01*
X185101482Y-151832688D01*
X184977000Y-151820428D01*
X183417000Y-151820428D01*
X183292518Y-151832688D01*
X183180725Y-151866600D01*
X182032311Y-151866600D01*
X182015774Y-151850063D01*
X181846256Y-151736795D01*
X181657898Y-151658774D01*
X181457939Y-151619000D01*
X181254061Y-151619000D01*
X181054102Y-151658774D01*
X180865744Y-151736795D01*
X180696226Y-151850063D01*
X180552063Y-151994226D01*
X180438795Y-152163744D01*
X180360774Y-152352102D01*
X180321000Y-152552061D01*
X180321000Y-152755939D01*
X180360774Y-152955898D01*
X180438795Y-153144256D01*
X180552063Y-153313774D01*
X180696226Y-153457937D01*
X180865744Y-153571205D01*
X181054102Y-153649226D01*
X181254061Y-153689000D01*
X181457939Y-153689000D01*
X181652485Y-153650303D01*
X181644291Y-153733500D01*
X181648100Y-153772173D01*
X181648101Y-155312347D01*
X179245450Y-157715000D01*
X179222061Y-157715000D01*
X179022102Y-157754774D01*
X178833744Y-157832795D01*
X178664226Y-157946063D01*
X178520063Y-158090226D01*
X178406795Y-158259744D01*
X178328774Y-158448102D01*
X178289000Y-158648061D01*
X178289000Y-158851939D01*
X178328774Y-159051898D01*
X178406795Y-159240256D01*
X178520063Y-159409774D01*
X178536600Y-159426311D01*
X178536601Y-170077827D01*
X178532792Y-170116500D01*
X178547995Y-170270857D01*
X178593018Y-170419282D01*
X178641504Y-170509991D01*
X178666135Y-170556072D01*
X178764532Y-170675969D01*
X178794573Y-170700623D01*
X179626381Y-171532433D01*
X179651031Y-171562469D01*
X179681067Y-171587119D01*
X179681069Y-171587121D01*
X179704327Y-171606208D01*
X179770928Y-171660866D01*
X179907717Y-171733982D01*
X180056143Y-171779006D01*
X180171827Y-171790400D01*
X180171836Y-171790400D01*
X180210499Y-171794208D01*
X180249162Y-171790400D01*
X182889428Y-171790400D01*
X182889428Y-172278000D01*
X182901688Y-172402482D01*
X182937998Y-172522180D01*
X182996963Y-172632494D01*
X183076315Y-172729185D01*
X183173006Y-172808537D01*
X183269625Y-172860182D01*
X183242000Y-172999061D01*
X183242000Y-173202939D01*
X183281774Y-173402898D01*
X183359795Y-173591256D01*
X183473063Y-173760774D01*
X183617226Y-173904937D01*
X183786744Y-174018205D01*
X183975102Y-174096226D01*
X184175061Y-174136000D01*
X184378939Y-174136000D01*
X184578898Y-174096226D01*
X184767256Y-174018205D01*
X184936774Y-173904937D01*
X185080937Y-173760774D01*
X185194205Y-173591256D01*
X185272226Y-173402898D01*
X185312000Y-173202939D01*
X185312000Y-172999061D01*
X185288441Y-172880619D01*
X185331680Y-172867502D01*
X185441994Y-172808537D01*
X185538685Y-172729185D01*
X185618037Y-172632494D01*
X185657500Y-172558665D01*
X185696963Y-172632494D01*
X185776315Y-172729185D01*
X185873006Y-172808537D01*
X185983320Y-172867502D01*
X186103018Y-172903812D01*
X186227500Y-172916072D01*
X187787500Y-172916072D01*
X187911982Y-172903812D01*
X188031680Y-172867502D01*
X188141994Y-172808537D01*
X188218927Y-172745400D01*
X189000837Y-172745400D01*
X189039500Y-172749208D01*
X189078163Y-172745400D01*
X189078173Y-172745400D01*
X189193857Y-172734006D01*
X189342283Y-172688982D01*
X189479072Y-172615866D01*
X189598969Y-172517469D01*
X189623627Y-172487423D01*
X189776100Y-172334950D01*
X189776101Y-177791348D01*
X189411849Y-178155600D01*
X188225019Y-178155600D01*
X188141994Y-178087463D01*
X188031680Y-178028498D01*
X187911982Y-177992188D01*
X187787500Y-177979928D01*
X186227500Y-177979928D01*
X186103018Y-177992188D01*
X185983320Y-178028498D01*
X185873006Y-178087463D01*
X185776315Y-178166815D01*
X185725572Y-178228646D01*
X185725572Y-177668000D01*
X185713312Y-177543518D01*
X185705571Y-177518000D01*
X185713312Y-177492482D01*
X185725572Y-177368000D01*
X185725572Y-176718000D01*
X185713312Y-176593518D01*
X185677002Y-176473820D01*
X185618037Y-176363506D01*
X185538685Y-176266815D01*
X185441994Y-176187463D01*
X185331680Y-176128498D01*
X185211982Y-176092188D01*
X185087500Y-176079928D01*
X183527500Y-176079928D01*
X183403018Y-176092188D01*
X183283320Y-176128498D01*
X183173006Y-176187463D01*
X183076315Y-176266815D01*
X182996963Y-176363506D01*
X182937998Y-176473820D01*
X182901688Y-176593518D01*
X182889428Y-176718000D01*
X182889428Y-177203100D01*
X181460811Y-177203100D01*
X181444274Y-177186563D01*
X181274756Y-177073295D01*
X181086398Y-176995274D01*
X180886439Y-176955500D01*
X180682561Y-176955500D01*
X180482602Y-176995274D01*
X180294244Y-177073295D01*
X180124726Y-177186563D01*
X179980563Y-177330726D01*
X179867295Y-177500244D01*
X179789274Y-177688602D01*
X179749500Y-177888561D01*
X179749500Y-178092439D01*
X179789274Y-178292398D01*
X179867295Y-178480756D01*
X179980563Y-178650274D01*
X180124726Y-178794437D01*
X180294244Y-178907705D01*
X180482602Y-178985726D01*
X180682561Y-179025500D01*
X180886439Y-179025500D01*
X181086398Y-178985726D01*
X181274756Y-178907705D01*
X181444274Y-178794437D01*
X181460811Y-178777900D01*
X182889428Y-178777900D01*
X182889428Y-179268000D01*
X182901688Y-179392482D01*
X182937998Y-179512180D01*
X182996963Y-179622494D01*
X183076315Y-179719185D01*
X183173006Y-179798537D01*
X183283320Y-179857502D01*
X183381449Y-179887269D01*
X183345274Y-179974602D01*
X183305500Y-180174561D01*
X183305500Y-180378439D01*
X183345274Y-180578398D01*
X183423295Y-180766756D01*
X183536563Y-180936274D01*
X183680726Y-181080437D01*
X183850244Y-181193705D01*
X184038602Y-181271726D01*
X184238561Y-181311500D01*
X184442439Y-181311500D01*
X184642398Y-181271726D01*
X184830756Y-181193705D01*
X185000274Y-181080437D01*
X185144437Y-180936274D01*
X185257705Y-180766756D01*
X185335726Y-180578398D01*
X185375500Y-180378439D01*
X185375500Y-180174561D01*
X185335726Y-179974602D01*
X185292184Y-179869483D01*
X185331680Y-179857502D01*
X185441994Y-179798537D01*
X185538685Y-179719185D01*
X185618037Y-179622494D01*
X185657500Y-179548665D01*
X185696963Y-179622494D01*
X185776315Y-179719185D01*
X185873006Y-179798537D01*
X185983320Y-179857502D01*
X186103018Y-179893812D01*
X186227500Y-179906072D01*
X187787500Y-179906072D01*
X187911982Y-179893812D01*
X188031680Y-179857502D01*
X188141994Y-179798537D01*
X188225019Y-179730400D01*
X189699337Y-179730400D01*
X189738000Y-179734208D01*
X189776663Y-179730400D01*
X189776673Y-179730400D01*
X189892357Y-179719006D01*
X190040783Y-179673982D01*
X190177572Y-179600866D01*
X190297469Y-179502469D01*
X190322127Y-179472423D01*
X191092933Y-178701619D01*
X191122969Y-178676969D01*
X191193351Y-178591209D01*
X191221365Y-178557073D01*
X191225163Y-178549969D01*
X191294482Y-178420283D01*
X191339506Y-178271857D01*
X191350900Y-178156173D01*
X191350900Y-178156164D01*
X191354708Y-178117501D01*
X191350900Y-178078838D01*
X191350900Y-173861982D01*
X191410563Y-173951274D01*
X191554726Y-174095437D01*
X191724244Y-174208705D01*
X191912602Y-174286726D01*
X192112561Y-174326500D01*
X192316439Y-174326500D01*
X192516398Y-174286726D01*
X192704756Y-174208705D01*
X192874274Y-174095437D01*
X193018437Y-173951274D01*
X193131705Y-173781756D01*
X193209726Y-173593398D01*
X193249500Y-173393439D01*
X193249500Y-173189561D01*
X193209726Y-172989602D01*
X193167106Y-172886709D01*
X193222180Y-172870002D01*
X193332494Y-172811037D01*
X193429185Y-172731685D01*
X193508537Y-172634994D01*
X193548000Y-172561165D01*
X193587463Y-172634994D01*
X193666815Y-172731685D01*
X193763506Y-172811037D01*
X193873820Y-172870002D01*
X193993518Y-172906312D01*
X194118000Y-172918572D01*
X195678000Y-172918572D01*
X195802482Y-172906312D01*
X195922180Y-172870002D01*
X196032494Y-172811037D01*
X196115519Y-172742900D01*
X197067837Y-172742900D01*
X197106500Y-172746708D01*
X197145163Y-172742900D01*
X197145173Y-172742900D01*
X197260857Y-172731506D01*
X197409283Y-172686482D01*
X197546072Y-172613366D01*
X197665969Y-172514969D01*
X197690627Y-172484923D01*
X197950927Y-172224624D01*
X197980969Y-172199969D01*
X198079366Y-172080072D01*
X198152482Y-171943283D01*
X198161516Y-171913500D01*
X198348939Y-171913500D01*
X198548898Y-171873726D01*
X198717428Y-171803918D01*
X198717428Y-172280500D01*
X198729688Y-172404982D01*
X198765998Y-172524680D01*
X198824963Y-172634994D01*
X198904315Y-172731685D01*
X199001006Y-172811037D01*
X199111320Y-172870002D01*
X199195711Y-172895602D01*
X199156774Y-172989602D01*
X199117000Y-173189561D01*
X199117000Y-173393439D01*
X199156774Y-173593398D01*
X199234795Y-173781756D01*
X199348063Y-173951274D01*
X199492226Y-174095437D01*
X199661744Y-174208705D01*
X199850102Y-174286726D01*
X200050061Y-174326500D01*
X200253939Y-174326500D01*
X200453898Y-174286726D01*
X200642256Y-174208705D01*
X200811774Y-174095437D01*
X200955937Y-173951274D01*
X201069205Y-173781756D01*
X201147226Y-173593398D01*
X201187000Y-173393439D01*
X201187000Y-173189561D01*
X201147226Y-172989602D01*
X201104606Y-172886709D01*
X201159680Y-172870002D01*
X201269994Y-172811037D01*
X201366685Y-172731685D01*
X201446037Y-172634994D01*
X201485500Y-172561165D01*
X201524963Y-172634994D01*
X201604315Y-172731685D01*
X201701006Y-172811037D01*
X201811320Y-172870002D01*
X201931018Y-172906312D01*
X202055500Y-172918572D01*
X203615500Y-172918572D01*
X203739982Y-172906312D01*
X203859680Y-172870002D01*
X203969994Y-172811037D01*
X204053019Y-172742900D01*
X205030350Y-172742900D01*
X205397100Y-173109651D01*
X205397101Y-177473847D01*
X202740450Y-180130500D01*
X202717061Y-180130500D01*
X202517102Y-180170274D01*
X202328744Y-180248295D01*
X202159226Y-180361563D01*
X202015063Y-180505726D01*
X201901795Y-180675244D01*
X201823774Y-180863602D01*
X201784000Y-181063561D01*
X201784000Y-181086949D01*
X200714850Y-182156100D01*
X192507162Y-182156100D01*
X192468499Y-182152292D01*
X192429836Y-182156100D01*
X192429827Y-182156100D01*
X192314143Y-182167494D01*
X192165717Y-182212518D01*
X192028928Y-182285634D01*
X191909031Y-182384031D01*
X191884378Y-182414071D01*
X191878635Y-182419814D01*
X191439234Y-182419023D01*
X191350274Y-182330063D01*
X191180756Y-182216795D01*
X190992398Y-182138774D01*
X190792439Y-182099000D01*
X190588561Y-182099000D01*
X190388602Y-182138774D01*
X190200244Y-182216795D01*
X190030726Y-182330063D01*
X190014189Y-182346600D01*
X176441662Y-182346600D01*
X176402999Y-182342792D01*
X176364336Y-182346600D01*
X176364327Y-182346600D01*
X176248643Y-182357994D01*
X176138209Y-182391493D01*
X172783705Y-182385458D01*
X172758924Y-182387854D01*
X172735086Y-182395038D01*
X172713109Y-182406735D01*
X172693835Y-182422494D01*
X172678006Y-182441711D01*
X172666231Y-182463646D01*
X172658961Y-182487457D01*
X172656476Y-182512458D01*
X172656500Y-188722000D01*
X169454520Y-188722000D01*
X169649766Y-188561766D01*
X169866579Y-188297578D01*
X170027686Y-187996168D01*
X170126895Y-187669119D01*
X170160394Y-187329000D01*
X170126895Y-186988881D01*
X170027686Y-186661832D01*
X169866579Y-186360422D01*
X169649766Y-186096234D01*
X169385578Y-185879421D01*
X169084168Y-185718314D01*
X168757119Y-185619105D01*
X168502225Y-185594000D01*
X167031775Y-185594000D01*
X166776881Y-185619105D01*
X166449832Y-185718314D01*
X166148422Y-185879421D01*
X165884234Y-186096234D01*
X165667421Y-186360422D01*
X165506314Y-186661832D01*
X165480628Y-186746507D01*
X165479382Y-179707386D01*
X165506314Y-179796168D01*
X165667421Y-180097578D01*
X165884234Y-180361766D01*
X165890008Y-180366504D01*
X165878928Y-180479000D01*
X165878928Y-181979000D01*
X165891188Y-182103482D01*
X165927498Y-182223180D01*
X165986463Y-182333494D01*
X166065815Y-182430185D01*
X166105940Y-182463114D01*
X165981236Y-182696419D01*
X165902040Y-182957493D01*
X165875299Y-183229000D01*
X165902040Y-183500507D01*
X165981236Y-183761581D01*
X166109843Y-184002188D01*
X166282919Y-184213081D01*
X166493812Y-184386157D01*
X166734419Y-184514764D01*
X166995493Y-184593960D01*
X167198963Y-184614000D01*
X168335037Y-184614000D01*
X168538507Y-184593960D01*
X168799581Y-184514764D01*
X169040188Y-184386157D01*
X169251081Y-184213081D01*
X169424157Y-184002188D01*
X169552764Y-183761581D01*
X169631960Y-183500507D01*
X169658701Y-183229000D01*
X169631960Y-182957493D01*
X169552764Y-182696419D01*
X169428060Y-182463114D01*
X169468185Y-182430185D01*
X169547537Y-182333494D01*
X169606502Y-182223180D01*
X169642812Y-182103482D01*
X169655072Y-181979000D01*
X169655072Y-180479000D01*
X169643992Y-180366504D01*
X169649766Y-180361766D01*
X169866579Y-180097578D01*
X170027686Y-179796168D01*
X170126895Y-179469119D01*
X170160394Y-179129000D01*
X170126895Y-178788881D01*
X170027686Y-178461832D01*
X169866579Y-178160422D01*
X169649766Y-177896234D01*
X169438956Y-177723227D01*
X170818230Y-177709705D01*
X170842981Y-177707022D01*
X170866734Y-177699562D01*
X170888574Y-177687611D01*
X170907664Y-177671629D01*
X170923268Y-177652230D01*
X170934789Y-177630159D01*
X170941782Y-177606265D01*
X170943985Y-177582375D01*
X170934105Y-173850183D01*
X171094061Y-173882000D01*
X171297939Y-173882000D01*
X171497898Y-173842226D01*
X171686256Y-173764205D01*
X171855774Y-173650937D01*
X171999937Y-173506774D01*
X172113205Y-173337256D01*
X172191226Y-173148898D01*
X172231000Y-172948939D01*
X172231000Y-172745061D01*
X172191226Y-172545102D01*
X172113205Y-172356744D01*
X171999937Y-172187226D01*
X171855774Y-172043063D01*
X171686256Y-171929795D01*
X171497898Y-171851774D01*
X171297939Y-171812000D01*
X171094061Y-171812000D01*
X170928797Y-171844873D01*
X170917011Y-167392278D01*
X170941550Y-167333035D01*
X171001500Y-167031647D01*
X171001500Y-166724353D01*
X170941550Y-166422965D01*
X170914271Y-166357106D01*
X170896873Y-159785000D01*
X171043939Y-159785000D01*
X171243898Y-159745226D01*
X171432256Y-159667205D01*
X171601774Y-159553937D01*
X171745937Y-159409774D01*
X171859205Y-159240256D01*
X171937226Y-159051898D01*
X171977000Y-158851939D01*
X171977000Y-158648061D01*
X171937226Y-158448102D01*
X171859205Y-158259744D01*
X171745937Y-158090226D01*
X171601774Y-157946063D01*
X171432256Y-157832795D01*
X171243898Y-157754774D01*
X171043939Y-157715000D01*
X170891394Y-157715000D01*
X170883377Y-154686312D01*
X170958050Y-154506035D01*
X171018000Y-154204647D01*
X171018000Y-153897353D01*
X170958050Y-153595965D01*
X170879992Y-153407515D01*
X170878839Y-152972113D01*
X174051759Y-152987346D01*
X174076547Y-152985024D01*
X174100406Y-152977912D01*
X174122419Y-152966281D01*
X174141739Y-152950580D01*
X174157626Y-152931411D01*
X174169467Y-152909511D01*
X174176808Y-152885721D01*
X174179369Y-152860381D01*
X174181366Y-145436957D01*
X174223226Y-145335898D01*
X174263000Y-145135939D01*
X174263000Y-144932061D01*
X174223226Y-144732102D01*
X174181582Y-144631566D01*
X174181632Y-144446687D01*
X174181632Y-144446475D01*
X174180500Y-143637000D01*
X174180500Y-143129000D01*
X174178060Y-143104224D01*
X174170833Y-143080399D01*
X174159097Y-143058443D01*
X174143303Y-143039197D01*
X174124057Y-143023403D01*
X174102101Y-143011667D01*
X174078276Y-143004440D01*
X174053499Y-143002000D01*
X170658889Y-143002019D01*
X170625426Y-138367322D01*
X180402686Y-138429997D01*
X180427478Y-138427716D01*
X180451348Y-138420642D01*
X180473379Y-138409047D01*
X180492725Y-138393376D01*
X180508642Y-138374233D01*
X180520519Y-138352352D01*
X180527898Y-138328574D01*
X180530496Y-138303946D01*
X180561259Y-134173957D01*
X182498996Y-134175405D01*
X182498996Y-134175405D01*
G37*
X182498996Y-134175405D02*
X182498989Y-134411392D01*
X182479688Y-134475018D01*
X182467428Y-134599500D01*
X182467428Y-136799500D01*
X182479688Y-136923982D01*
X182498910Y-136987347D01*
X182498871Y-138239496D01*
X182501311Y-138264273D01*
X182508537Y-138288097D01*
X182520272Y-138310054D01*
X182536066Y-138329300D01*
X182555310Y-138345094D01*
X182577267Y-138356831D01*
X182601091Y-138364059D01*
X182624869Y-138366496D01*
X186127428Y-138394126D01*
X186127428Y-139331500D01*
X186139688Y-139455982D01*
X186175998Y-139575680D01*
X186234963Y-139685994D01*
X186314315Y-139782685D01*
X186411006Y-139862037D01*
X186521320Y-139921002D01*
X186641018Y-139957312D01*
X186765500Y-139969572D01*
X188265500Y-139969572D01*
X188389982Y-139957312D01*
X188509680Y-139921002D01*
X188619994Y-139862037D01*
X188716685Y-139782685D01*
X188796037Y-139685994D01*
X188855002Y-139575680D01*
X188891312Y-139455982D01*
X188903572Y-139331500D01*
X188903572Y-138416025D01*
X206144734Y-138552032D01*
X206129702Y-162463406D01*
X206041450Y-162676465D01*
X205981500Y-162977853D01*
X205981500Y-163285147D01*
X206041450Y-163586535D01*
X206128863Y-163797569D01*
X206123952Y-171609402D01*
X205940627Y-171426077D01*
X205915969Y-171396031D01*
X205796072Y-171297634D01*
X205659283Y-171224518D01*
X205510857Y-171179494D01*
X205395173Y-171168100D01*
X205395163Y-171168100D01*
X205356500Y-171164292D01*
X205317837Y-171168100D01*
X204053019Y-171168100D01*
X203969994Y-171099963D01*
X203859680Y-171040998D01*
X203739982Y-171004688D01*
X203615500Y-170992428D01*
X202055500Y-170992428D01*
X201931018Y-171004688D01*
X201811320Y-171040998D01*
X201701006Y-171099963D01*
X201604315Y-171179315D01*
X201553572Y-171241146D01*
X201553572Y-170680500D01*
X201541312Y-170556018D01*
X201533571Y-170530500D01*
X201541312Y-170504982D01*
X201553572Y-170380500D01*
X201553572Y-169730500D01*
X201541312Y-169606018D01*
X201505002Y-169486320D01*
X201446037Y-169376006D01*
X201366685Y-169279315D01*
X201269994Y-169199963D01*
X201159680Y-169140998D01*
X201039982Y-169104688D01*
X200939400Y-169094782D01*
X200939400Y-168439674D01*
X200956494Y-168430537D01*
X201053185Y-168351185D01*
X201132537Y-168254494D01*
X201191502Y-168144180D01*
X201227812Y-168024482D01*
X201240072Y-167900000D01*
X201240072Y-166700000D01*
X201227812Y-166575518D01*
X201191502Y-166455820D01*
X201132537Y-166345506D01*
X201053185Y-166248815D01*
X200993704Y-166200000D01*
X201053185Y-166151185D01*
X201132537Y-166054494D01*
X201191502Y-165944180D01*
X201227812Y-165824482D01*
X201240072Y-165700000D01*
X201240072Y-164500000D01*
X201227812Y-164375518D01*
X201191502Y-164255820D01*
X201132537Y-164145506D01*
X201121073Y-164131537D01*
X201147226Y-164068398D01*
X201187000Y-163868439D01*
X201187000Y-163664561D01*
X201147226Y-163464602D01*
X201069205Y-163276244D01*
X200955937Y-163106726D01*
X200811774Y-162962563D01*
X200642256Y-162849295D01*
X200453898Y-162771274D01*
X200253939Y-162731500D01*
X200050061Y-162731500D01*
X199850102Y-162771274D01*
X199661744Y-162849295D01*
X199492226Y-162962563D01*
X199348063Y-163106726D01*
X199234795Y-163276244D01*
X199156774Y-163464602D01*
X199117000Y-163664561D01*
X199117000Y-163868439D01*
X199156774Y-164068398D01*
X199182927Y-164131537D01*
X199171463Y-164145506D01*
X199112498Y-164255820D01*
X199076188Y-164375518D01*
X199063928Y-164500000D01*
X199063928Y-165700000D01*
X199076188Y-165824482D01*
X199112498Y-165944180D01*
X199171463Y-166054494D01*
X199250815Y-166151185D01*
X199310296Y-166200000D01*
X199250815Y-166248815D01*
X199171463Y-166345506D01*
X199112498Y-166455820D01*
X199076188Y-166575518D01*
X199063928Y-166700000D01*
X199063928Y-167900000D01*
X199076188Y-168024482D01*
X199112498Y-168144180D01*
X199171463Y-168254494D01*
X199250815Y-168351185D01*
X199347506Y-168430537D01*
X199364600Y-168439674D01*
X199364601Y-169092428D01*
X199355500Y-169092428D01*
X199231018Y-169104688D01*
X199111320Y-169140998D01*
X199001006Y-169199963D01*
X198917981Y-169268100D01*
X197648162Y-169268100D01*
X197609499Y-169264292D01*
X197570836Y-169268100D01*
X197570827Y-169268100D01*
X197455143Y-169279494D01*
X197306717Y-169324518D01*
X197169928Y-169397634D01*
X197050031Y-169496031D01*
X197025378Y-169526071D01*
X196892076Y-169659373D01*
X196862031Y-169684031D01*
X196763634Y-169803929D01*
X196690518Y-169940718D01*
X196645494Y-170089144D01*
X196634100Y-170204828D01*
X196634100Y-170204837D01*
X196630292Y-170243500D01*
X196634100Y-170282163D01*
X196634101Y-171168100D01*
X196115519Y-171168100D01*
X196032494Y-171099963D01*
X195922180Y-171040998D01*
X195802482Y-171004688D01*
X195678000Y-170992428D01*
X194118000Y-170992428D01*
X193993518Y-171004688D01*
X193873820Y-171040998D01*
X193763506Y-171099963D01*
X193666815Y-171179315D01*
X193616072Y-171241146D01*
X193616072Y-170680500D01*
X193603812Y-170556018D01*
X193596071Y-170530500D01*
X193603812Y-170504982D01*
X193616072Y-170380500D01*
X193616072Y-169730500D01*
X193603812Y-169606018D01*
X193567502Y-169486320D01*
X193508537Y-169376006D01*
X193429185Y-169279315D01*
X193332494Y-169199963D01*
X193222180Y-169140998D01*
X193102482Y-169104688D01*
X192978000Y-169092428D01*
X191418000Y-169092428D01*
X191293518Y-169104688D01*
X191173820Y-169140998D01*
X191063506Y-169199963D01*
X190980500Y-169268084D01*
X190941999Y-169264292D01*
X190903336Y-169268100D01*
X190903327Y-169268100D01*
X190787643Y-169279494D01*
X190639217Y-169324518D01*
X190502428Y-169397634D01*
X190502426Y-169397635D01*
X190502427Y-169397635D01*
X190412569Y-169471379D01*
X190412567Y-169471381D01*
X190382531Y-169496031D01*
X190357881Y-169526067D01*
X188713350Y-171170600D01*
X188231112Y-171170600D01*
X188141994Y-171097463D01*
X188031680Y-171038498D01*
X187911982Y-171002188D01*
X187787500Y-170989928D01*
X186227500Y-170989928D01*
X186103018Y-171002188D01*
X185983320Y-171038498D01*
X185873006Y-171097463D01*
X185776315Y-171176815D01*
X185725572Y-171238646D01*
X185725572Y-170678000D01*
X185713312Y-170553518D01*
X185705571Y-170528000D01*
X185713312Y-170502482D01*
X185725572Y-170378000D01*
X185725572Y-169728000D01*
X185713312Y-169603518D01*
X185677002Y-169483820D01*
X185618037Y-169373506D01*
X185538685Y-169276815D01*
X185441994Y-169197463D01*
X185331680Y-169138498D01*
X185211982Y-169102188D01*
X185087500Y-169089928D01*
X183527500Y-169089928D01*
X183403018Y-169102188D01*
X183283320Y-169138498D01*
X183173006Y-169197463D01*
X183131961Y-169231147D01*
X182989256Y-169135795D01*
X182800898Y-169057774D01*
X182600939Y-169018000D01*
X182397061Y-169018000D01*
X182197102Y-169057774D01*
X182008744Y-169135795D01*
X181839226Y-169249063D01*
X181695063Y-169393226D01*
X181581795Y-169562744D01*
X181503774Y-169751102D01*
X181464000Y-169951061D01*
X181464000Y-170154939D01*
X181476066Y-170215600D01*
X180536651Y-170215600D01*
X180111400Y-169790349D01*
X180111400Y-159426311D01*
X180127937Y-159409774D01*
X180241205Y-159240256D01*
X180319226Y-159051898D01*
X180359000Y-158851939D01*
X180359000Y-158828550D01*
X182964933Y-156222619D01*
X182994969Y-156197969D01*
X183024405Y-156162102D01*
X183093365Y-156078073D01*
X183093366Y-156078072D01*
X183166482Y-155941283D01*
X183190240Y-155862962D01*
X183218274Y-156003898D01*
X183296295Y-156192256D01*
X183409563Y-156361774D01*
X183553726Y-156505937D01*
X183723244Y-156619205D01*
X183911602Y-156697226D01*
X184111561Y-156737000D01*
X184315439Y-156737000D01*
X184515398Y-156697226D01*
X184703756Y-156619205D01*
X184873274Y-156505937D01*
X185017437Y-156361774D01*
X185130705Y-156192256D01*
X185208726Y-156003898D01*
X185248500Y-155803939D01*
X185248500Y-155600061D01*
X185245504Y-155585000D01*
X185331494Y-155539037D01*
X185428185Y-155459685D01*
X185507537Y-155362994D01*
X185547000Y-155289165D01*
X185586463Y-155362994D01*
X185665815Y-155459685D01*
X185762506Y-155539037D01*
X185872820Y-155598002D01*
X185992518Y-155634312D01*
X186117000Y-155646572D01*
X187677000Y-155646572D01*
X187801482Y-155634312D01*
X187921180Y-155598002D01*
X188031494Y-155539037D01*
X188114519Y-155470900D01*
X188321151Y-155470900D01*
X188385200Y-155477208D01*
X188539557Y-155462006D01*
X188687982Y-155416982D01*
X188824772Y-155343866D01*
X188944669Y-155245469D01*
X188969327Y-155215423D01*
X189077600Y-155107150D01*
X189077601Y-159693848D01*
X188522850Y-160248600D01*
X188181066Y-160248600D01*
X188094994Y-160177963D01*
X187984680Y-160118998D01*
X187864982Y-160082688D01*
X187740500Y-160070428D01*
X186180500Y-160070428D01*
X186056018Y-160082688D01*
X185936320Y-160118998D01*
X185826006Y-160177963D01*
X185729315Y-160257315D01*
X185678572Y-160319146D01*
X185678572Y-159758500D01*
X185666312Y-159634018D01*
X185658571Y-159608500D01*
X185666312Y-159582982D01*
X185678572Y-159458500D01*
X185678572Y-158808500D01*
X185666312Y-158684018D01*
X185630002Y-158564320D01*
X185571037Y-158454006D01*
X185491685Y-158357315D01*
X185394994Y-158277963D01*
X185284680Y-158218998D01*
X185164982Y-158182688D01*
X185040500Y-158170428D01*
X183480500Y-158170428D01*
X183356018Y-158182688D01*
X183236320Y-158218998D01*
X183126006Y-158277963D01*
X183029315Y-158357315D01*
X182949963Y-158454006D01*
X182890998Y-158564320D01*
X182854688Y-158684018D01*
X182842428Y-158808500D01*
X182842428Y-159105476D01*
X182800898Y-159088274D01*
X182600939Y-159048500D01*
X182397061Y-159048500D01*
X182197102Y-159088274D01*
X182008744Y-159166295D01*
X181839226Y-159279563D01*
X181695063Y-159423726D01*
X181581795Y-159593244D01*
X181503774Y-159781602D01*
X181464000Y-159981561D01*
X181464000Y-160185439D01*
X181503774Y-160385398D01*
X181581795Y-160573756D01*
X181695063Y-160743274D01*
X181839226Y-160887437D01*
X182008744Y-161000705D01*
X182197102Y-161078726D01*
X182397061Y-161118500D01*
X182600939Y-161118500D01*
X182800898Y-161078726D01*
X182842428Y-161061524D01*
X182842428Y-161358500D01*
X182854688Y-161482982D01*
X182890998Y-161602680D01*
X182949963Y-161712994D01*
X183029315Y-161809685D01*
X183126006Y-161889037D01*
X183236320Y-161948002D01*
X183265887Y-161956971D01*
X183242000Y-162077061D01*
X183242000Y-162280939D01*
X183281774Y-162480898D01*
X183359795Y-162669256D01*
X183473063Y-162838774D01*
X183617226Y-162982937D01*
X183786744Y-163096205D01*
X183975102Y-163174226D01*
X184175061Y-163214000D01*
X184378939Y-163214000D01*
X184578898Y-163174226D01*
X184767256Y-163096205D01*
X184936774Y-162982937D01*
X185080937Y-162838774D01*
X185194205Y-162669256D01*
X185272226Y-162480898D01*
X185312000Y-162280939D01*
X185312000Y-162077061D01*
X185286170Y-161947205D01*
X185394994Y-161889037D01*
X185491685Y-161809685D01*
X185571037Y-161712994D01*
X185610500Y-161639165D01*
X185649963Y-161712994D01*
X185729315Y-161809685D01*
X185826006Y-161889037D01*
X185936320Y-161948002D01*
X186056018Y-161984312D01*
X186180500Y-161996572D01*
X187740500Y-161996572D01*
X187864982Y-161984312D01*
X187984680Y-161948002D01*
X188094994Y-161889037D01*
X188174973Y-161823400D01*
X188810337Y-161823400D01*
X188849000Y-161827208D01*
X188887663Y-161823400D01*
X188887673Y-161823400D01*
X189003357Y-161812006D01*
X189151783Y-161766982D01*
X189288572Y-161693866D01*
X189408469Y-161595469D01*
X189433128Y-161565423D01*
X190394428Y-160604123D01*
X190424469Y-160579469D01*
X190479513Y-160512398D01*
X190522866Y-160459573D01*
X190595982Y-160322783D01*
X190602129Y-160302518D01*
X190641006Y-160174357D01*
X190652400Y-160058673D01*
X190652400Y-160058663D01*
X190656208Y-160020000D01*
X190652400Y-159981337D01*
X190652400Y-156492611D01*
X190729226Y-156569437D01*
X190898744Y-156682705D01*
X191087102Y-156760726D01*
X191287061Y-156800500D01*
X191490939Y-156800500D01*
X191690898Y-156760726D01*
X191879256Y-156682705D01*
X192048774Y-156569437D01*
X192192937Y-156425274D01*
X192306205Y-156255756D01*
X192384226Y-156067398D01*
X192424000Y-155867439D01*
X192424000Y-155663561D01*
X192409587Y-155591103D01*
X192506994Y-155539037D01*
X192603685Y-155459685D01*
X192683037Y-155362994D01*
X192722500Y-155289165D01*
X192761963Y-155362994D01*
X192841315Y-155459685D01*
X192938006Y-155539037D01*
X193048320Y-155598002D01*
X193168018Y-155634312D01*
X193292500Y-155646572D01*
X194852500Y-155646572D01*
X194976982Y-155634312D01*
X195096680Y-155598002D01*
X195206994Y-155539037D01*
X195290019Y-155470900D01*
X196496337Y-155470900D01*
X196535000Y-155474708D01*
X196573663Y-155470900D01*
X196573673Y-155470900D01*
X196689357Y-155459506D01*
X196837783Y-155414482D01*
X196974572Y-155341366D01*
X197094469Y-155242969D01*
X197119127Y-155212923D01*
X197205601Y-155126449D01*
X197205600Y-160867689D01*
X197189063Y-160884226D01*
X197075795Y-161053744D01*
X196997774Y-161242102D01*
X196958000Y-161442061D01*
X196958000Y-161645939D01*
X196997774Y-161845898D01*
X197075795Y-162034256D01*
X197189063Y-162203774D01*
X197333226Y-162347937D01*
X197502744Y-162461205D01*
X197691102Y-162539226D01*
X197891061Y-162579000D01*
X198094939Y-162579000D01*
X198294898Y-162539226D01*
X198483256Y-162461205D01*
X198652774Y-162347937D01*
X198796937Y-162203774D01*
X198910205Y-162034256D01*
X198988226Y-161845898D01*
X199028000Y-161645939D01*
X199028000Y-161442061D01*
X198988226Y-161242102D01*
X198910205Y-161053744D01*
X198796937Y-160884226D01*
X198780400Y-160867689D01*
X198780400Y-156399482D01*
X198840063Y-156488774D01*
X198984226Y-156632937D01*
X199153744Y-156746205D01*
X199342102Y-156824226D01*
X199542061Y-156864000D01*
X199745939Y-156864000D01*
X199945898Y-156824226D01*
X200134256Y-156746205D01*
X200303774Y-156632937D01*
X200447937Y-156488774D01*
X200561205Y-156319256D01*
X200639226Y-156130898D01*
X200679000Y-155930939D01*
X200679000Y-155727061D01*
X200653170Y-155597205D01*
X200761994Y-155539037D01*
X200858685Y-155459685D01*
X200938037Y-155362994D01*
X200977500Y-155289165D01*
X201016963Y-155362994D01*
X201096315Y-155459685D01*
X201193006Y-155539037D01*
X201303320Y-155598002D01*
X201423018Y-155634312D01*
X201540101Y-155645843D01*
X201540101Y-156080437D01*
X201506274Y-156162102D01*
X201466500Y-156362061D01*
X201466500Y-156565939D01*
X201506274Y-156765898D01*
X201584295Y-156954256D01*
X201697563Y-157123774D01*
X201841726Y-157267937D01*
X202011244Y-157381205D01*
X202199602Y-157459226D01*
X202399561Y-157499000D01*
X202603439Y-157499000D01*
X202803398Y-157459226D01*
X202991756Y-157381205D01*
X203161274Y-157267937D01*
X203305437Y-157123774D01*
X203418705Y-156954256D01*
X203496726Y-156765898D01*
X203536500Y-156565939D01*
X203536500Y-156362061D01*
X203496726Y-156162102D01*
X203418705Y-155973744D01*
X203305437Y-155804226D01*
X203161274Y-155660063D01*
X203136769Y-155643689D01*
X203231982Y-155634312D01*
X203351680Y-155598002D01*
X203461994Y-155539037D01*
X203558685Y-155459685D01*
X203638037Y-155362994D01*
X203697002Y-155252680D01*
X203733312Y-155132982D01*
X203745572Y-155008500D01*
X203745572Y-154358500D01*
X203733312Y-154234018D01*
X203697002Y-154114320D01*
X203638037Y-154004006D01*
X203558685Y-153907315D01*
X203461994Y-153827963D01*
X203351680Y-153768998D01*
X203231982Y-153732688D01*
X203107500Y-153720428D01*
X201547500Y-153720428D01*
X201423018Y-153732688D01*
X201303320Y-153768998D01*
X201193006Y-153827963D01*
X201096315Y-153907315D01*
X201045572Y-153969146D01*
X201045572Y-153408500D01*
X201033312Y-153284018D01*
X201025571Y-153258500D01*
X201033312Y-153232982D01*
X201045572Y-153108500D01*
X201045572Y-152458500D01*
X201033312Y-152334018D01*
X200997002Y-152214320D01*
X200938037Y-152104006D01*
X200858685Y-152007315D01*
X200761994Y-151927963D01*
X200651680Y-151868998D01*
X200531982Y-151832688D01*
X200431400Y-151822782D01*
X200431400Y-150575674D01*
X200448494Y-150566537D01*
X200545185Y-150487185D01*
X200624537Y-150390494D01*
X200683502Y-150280180D01*
X200719812Y-150160482D01*
X200732072Y-150036000D01*
X200732072Y-148836000D01*
X200719812Y-148711518D01*
X200683502Y-148591820D01*
X200624537Y-148481506D01*
X200545185Y-148384815D01*
X200485704Y-148336000D01*
X200545185Y-148287185D01*
X200624537Y-148190494D01*
X200683502Y-148080180D01*
X200719812Y-147960482D01*
X200732072Y-147836000D01*
X200732072Y-146636000D01*
X200719812Y-146511518D01*
X200683502Y-146391820D01*
X200624537Y-146281506D01*
X200583756Y-146231814D01*
X200639226Y-146097898D01*
X200679000Y-145897939D01*
X200679000Y-145694061D01*
X200639226Y-145494102D01*
X200561205Y-145305744D01*
X200447937Y-145136226D01*
X200303774Y-144992063D01*
X200134256Y-144878795D01*
X199945898Y-144800774D01*
X199745939Y-144761000D01*
X199542061Y-144761000D01*
X199342102Y-144800774D01*
X199153744Y-144878795D01*
X198984226Y-144992063D01*
X198840063Y-145136226D01*
X198726795Y-145305744D01*
X198648774Y-145494102D01*
X198609000Y-145694061D01*
X198609000Y-145897939D01*
X198648774Y-146097898D01*
X198704244Y-146231814D01*
X198663463Y-146281506D01*
X198604498Y-146391820D01*
X198568188Y-146511518D01*
X198555928Y-146636000D01*
X198555928Y-147836000D01*
X198568188Y-147960482D01*
X198604498Y-148080180D01*
X198663463Y-148190494D01*
X198742815Y-148287185D01*
X198802296Y-148336000D01*
X198742815Y-148384815D01*
X198663463Y-148481506D01*
X198604498Y-148591820D01*
X198568188Y-148711518D01*
X198555928Y-148836000D01*
X198555928Y-150036000D01*
X198568188Y-150160482D01*
X198604498Y-150280180D01*
X198663463Y-150390494D01*
X198742815Y-150487185D01*
X198839506Y-150566537D01*
X198856600Y-150575674D01*
X198856601Y-151820428D01*
X198847500Y-151820428D01*
X198723018Y-151832688D01*
X198603320Y-151868998D01*
X198493006Y-151927963D01*
X198414962Y-151992012D01*
X198398836Y-151993600D01*
X198398827Y-151993600D01*
X198283143Y-152004994D01*
X198134717Y-152050018D01*
X197997928Y-152123134D01*
X197997926Y-152123135D01*
X197997927Y-152123135D01*
X197908069Y-152196879D01*
X197908067Y-152196881D01*
X197878031Y-152221531D01*
X197853381Y-152251567D01*
X196208850Y-153896100D01*
X195290019Y-153896100D01*
X195206994Y-153827963D01*
X195096680Y-153768998D01*
X194976982Y-153732688D01*
X194852500Y-153720428D01*
X193292500Y-153720428D01*
X193168018Y-153732688D01*
X193048320Y-153768998D01*
X192938006Y-153827963D01*
X192841315Y-153907315D01*
X192790572Y-153969146D01*
X192790572Y-153408500D01*
X192778312Y-153284018D01*
X192770571Y-153258500D01*
X192778312Y-153232982D01*
X192790572Y-153108500D01*
X192790572Y-152458500D01*
X192778312Y-152334018D01*
X192742002Y-152214320D01*
X192683037Y-152104006D01*
X192603685Y-152007315D01*
X192506994Y-151927963D01*
X192396680Y-151868998D01*
X192276982Y-151832688D01*
X192152500Y-151820428D01*
X190592500Y-151820428D01*
X190468018Y-151832688D01*
X190348320Y-151868998D01*
X190238006Y-151927963D01*
X190142154Y-152006626D01*
X190133343Y-152007494D01*
X189984917Y-152052518D01*
X189848128Y-152125634D01*
X189848126Y-152125635D01*
X189848127Y-152125635D01*
X189758269Y-152199379D01*
X189758267Y-152199381D01*
X189728231Y-152224031D01*
X189703581Y-152254067D01*
X188085426Y-153872224D01*
X188031494Y-153827963D01*
X187921180Y-153768998D01*
X187801482Y-153732688D01*
X187677000Y-153720428D01*
X186117000Y-153720428D01*
X185992518Y-153732688D01*
X185872820Y-153768998D01*
X185762506Y-153827963D01*
X185665815Y-153907315D01*
X185615072Y-153969146D01*
X185615072Y-153408500D01*
X185602812Y-153284018D01*
X185595071Y-153258500D01*
X185602812Y-153232982D01*
X185615072Y-153108500D01*
X185615072Y-152458500D01*
X185602812Y-152334018D01*
X185566502Y-152214320D01*
X185507537Y-152104006D01*
X185428185Y-152007315D01*
X185331494Y-151927963D01*
X185221180Y-151868998D01*
X185101482Y-151832688D01*
X184977000Y-151820428D01*
X183417000Y-151820428D01*
X183292518Y-151832688D01*
X183180725Y-151866600D01*
X182032311Y-151866600D01*
X182015774Y-151850063D01*
X181846256Y-151736795D01*
X181657898Y-151658774D01*
X181457939Y-151619000D01*
X181254061Y-151619000D01*
X181054102Y-151658774D01*
X180865744Y-151736795D01*
X180696226Y-151850063D01*
X180552063Y-151994226D01*
X180438795Y-152163744D01*
X180360774Y-152352102D01*
X180321000Y-152552061D01*
X180321000Y-152755939D01*
X180360774Y-152955898D01*
X180438795Y-153144256D01*
X180552063Y-153313774D01*
X180696226Y-153457937D01*
X180865744Y-153571205D01*
X181054102Y-153649226D01*
X181254061Y-153689000D01*
X181457939Y-153689000D01*
X181652485Y-153650303D01*
X181644291Y-153733500D01*
X181648100Y-153772173D01*
X181648101Y-155312347D01*
X179245450Y-157715000D01*
X179222061Y-157715000D01*
X179022102Y-157754774D01*
X178833744Y-157832795D01*
X178664226Y-157946063D01*
X178520063Y-158090226D01*
X178406795Y-158259744D01*
X178328774Y-158448102D01*
X178289000Y-158648061D01*
X178289000Y-158851939D01*
X178328774Y-159051898D01*
X178406795Y-159240256D01*
X178520063Y-159409774D01*
X178536600Y-159426311D01*
X178536601Y-170077827D01*
X178532792Y-170116500D01*
X178547995Y-170270857D01*
X178593018Y-170419282D01*
X178641504Y-170509991D01*
X178666135Y-170556072D01*
X178764532Y-170675969D01*
X178794573Y-170700623D01*
X179626381Y-171532433D01*
X179651031Y-171562469D01*
X179681067Y-171587119D01*
X179681069Y-171587121D01*
X179704327Y-171606208D01*
X179770928Y-171660866D01*
X179907717Y-171733982D01*
X180056143Y-171779006D01*
X180171827Y-171790400D01*
X180171836Y-171790400D01*
X180210499Y-171794208D01*
X180249162Y-171790400D01*
X182889428Y-171790400D01*
X182889428Y-172278000D01*
X182901688Y-172402482D01*
X182937998Y-172522180D01*
X182996963Y-172632494D01*
X183076315Y-172729185D01*
X183173006Y-172808537D01*
X183269625Y-172860182D01*
X183242000Y-172999061D01*
X183242000Y-173202939D01*
X183281774Y-173402898D01*
X183359795Y-173591256D01*
X183473063Y-173760774D01*
X183617226Y-173904937D01*
X183786744Y-174018205D01*
X183975102Y-174096226D01*
X184175061Y-174136000D01*
X184378939Y-174136000D01*
X184578898Y-174096226D01*
X184767256Y-174018205D01*
X184936774Y-173904937D01*
X185080937Y-173760774D01*
X185194205Y-173591256D01*
X185272226Y-173402898D01*
X185312000Y-173202939D01*
X185312000Y-172999061D01*
X185288441Y-172880619D01*
X185331680Y-172867502D01*
X185441994Y-172808537D01*
X185538685Y-172729185D01*
X185618037Y-172632494D01*
X185657500Y-172558665D01*
X185696963Y-172632494D01*
X185776315Y-172729185D01*
X185873006Y-172808537D01*
X185983320Y-172867502D01*
X186103018Y-172903812D01*
X186227500Y-172916072D01*
X187787500Y-172916072D01*
X187911982Y-172903812D01*
X188031680Y-172867502D01*
X188141994Y-172808537D01*
X188218927Y-172745400D01*
X189000837Y-172745400D01*
X189039500Y-172749208D01*
X189078163Y-172745400D01*
X189078173Y-172745400D01*
X189193857Y-172734006D01*
X189342283Y-172688982D01*
X189479072Y-172615866D01*
X189598969Y-172517469D01*
X189623627Y-172487423D01*
X189776100Y-172334950D01*
X189776101Y-177791348D01*
X189411849Y-178155600D01*
X188225019Y-178155600D01*
X188141994Y-178087463D01*
X188031680Y-178028498D01*
X187911982Y-177992188D01*
X187787500Y-177979928D01*
X186227500Y-177979928D01*
X186103018Y-177992188D01*
X185983320Y-178028498D01*
X185873006Y-178087463D01*
X185776315Y-178166815D01*
X185725572Y-178228646D01*
X185725572Y-177668000D01*
X185713312Y-177543518D01*
X185705571Y-177518000D01*
X185713312Y-177492482D01*
X185725572Y-177368000D01*
X185725572Y-176718000D01*
X185713312Y-176593518D01*
X185677002Y-176473820D01*
X185618037Y-176363506D01*
X185538685Y-176266815D01*
X185441994Y-176187463D01*
X185331680Y-176128498D01*
X185211982Y-176092188D01*
X185087500Y-176079928D01*
X183527500Y-176079928D01*
X183403018Y-176092188D01*
X183283320Y-176128498D01*
X183173006Y-176187463D01*
X183076315Y-176266815D01*
X182996963Y-176363506D01*
X182937998Y-176473820D01*
X182901688Y-176593518D01*
X182889428Y-176718000D01*
X182889428Y-177203100D01*
X181460811Y-177203100D01*
X181444274Y-177186563D01*
X181274756Y-177073295D01*
X181086398Y-176995274D01*
X180886439Y-176955500D01*
X180682561Y-176955500D01*
X180482602Y-176995274D01*
X180294244Y-177073295D01*
X180124726Y-177186563D01*
X179980563Y-177330726D01*
X179867295Y-177500244D01*
X179789274Y-177688602D01*
X179749500Y-177888561D01*
X179749500Y-178092439D01*
X179789274Y-178292398D01*
X179867295Y-178480756D01*
X179980563Y-178650274D01*
X180124726Y-178794437D01*
X180294244Y-178907705D01*
X180482602Y-178985726D01*
X180682561Y-179025500D01*
X180886439Y-179025500D01*
X181086398Y-178985726D01*
X181274756Y-178907705D01*
X181444274Y-178794437D01*
X181460811Y-178777900D01*
X182889428Y-178777900D01*
X182889428Y-179268000D01*
X182901688Y-179392482D01*
X182937998Y-179512180D01*
X182996963Y-179622494D01*
X183076315Y-179719185D01*
X183173006Y-179798537D01*
X183283320Y-179857502D01*
X183381449Y-179887269D01*
X183345274Y-179974602D01*
X183305500Y-180174561D01*
X183305500Y-180378439D01*
X183345274Y-180578398D01*
X183423295Y-180766756D01*
X183536563Y-180936274D01*
X183680726Y-181080437D01*
X183850244Y-181193705D01*
X184038602Y-181271726D01*
X184238561Y-181311500D01*
X184442439Y-181311500D01*
X184642398Y-181271726D01*
X184830756Y-181193705D01*
X185000274Y-181080437D01*
X185144437Y-180936274D01*
X185257705Y-180766756D01*
X185335726Y-180578398D01*
X185375500Y-180378439D01*
X185375500Y-180174561D01*
X185335726Y-179974602D01*
X185292184Y-179869483D01*
X185331680Y-179857502D01*
X185441994Y-179798537D01*
X185538685Y-179719185D01*
X185618037Y-179622494D01*
X185657500Y-179548665D01*
X185696963Y-179622494D01*
X185776315Y-179719185D01*
X185873006Y-179798537D01*
X185983320Y-179857502D01*
X186103018Y-179893812D01*
X186227500Y-179906072D01*
X187787500Y-179906072D01*
X187911982Y-179893812D01*
X188031680Y-179857502D01*
X188141994Y-179798537D01*
X188225019Y-179730400D01*
X189699337Y-179730400D01*
X189738000Y-179734208D01*
X189776663Y-179730400D01*
X189776673Y-179730400D01*
X189892357Y-179719006D01*
X190040783Y-179673982D01*
X190177572Y-179600866D01*
X190297469Y-179502469D01*
X190322127Y-179472423D01*
X191092933Y-178701619D01*
X191122969Y-178676969D01*
X191193351Y-178591209D01*
X191221365Y-178557073D01*
X191225163Y-178549969D01*
X191294482Y-178420283D01*
X191339506Y-178271857D01*
X191350900Y-178156173D01*
X191350900Y-178156164D01*
X191354708Y-178117501D01*
X191350900Y-178078838D01*
X191350900Y-173861982D01*
X191410563Y-173951274D01*
X191554726Y-174095437D01*
X191724244Y-174208705D01*
X191912602Y-174286726D01*
X192112561Y-174326500D01*
X192316439Y-174326500D01*
X192516398Y-174286726D01*
X192704756Y-174208705D01*
X192874274Y-174095437D01*
X193018437Y-173951274D01*
X193131705Y-173781756D01*
X193209726Y-173593398D01*
X193249500Y-173393439D01*
X193249500Y-173189561D01*
X193209726Y-172989602D01*
X193167106Y-172886709D01*
X193222180Y-172870002D01*
X193332494Y-172811037D01*
X193429185Y-172731685D01*
X193508537Y-172634994D01*
X193548000Y-172561165D01*
X193587463Y-172634994D01*
X193666815Y-172731685D01*
X193763506Y-172811037D01*
X193873820Y-172870002D01*
X193993518Y-172906312D01*
X194118000Y-172918572D01*
X195678000Y-172918572D01*
X195802482Y-172906312D01*
X195922180Y-172870002D01*
X196032494Y-172811037D01*
X196115519Y-172742900D01*
X197067837Y-172742900D01*
X197106500Y-172746708D01*
X197145163Y-172742900D01*
X197145173Y-172742900D01*
X197260857Y-172731506D01*
X197409283Y-172686482D01*
X197546072Y-172613366D01*
X197665969Y-172514969D01*
X197690627Y-172484923D01*
X197950927Y-172224624D01*
X197980969Y-172199969D01*
X198079366Y-172080072D01*
X198152482Y-171943283D01*
X198161516Y-171913500D01*
X198348939Y-171913500D01*
X198548898Y-171873726D01*
X198717428Y-171803918D01*
X198717428Y-172280500D01*
X198729688Y-172404982D01*
X198765998Y-172524680D01*
X198824963Y-172634994D01*
X198904315Y-172731685D01*
X199001006Y-172811037D01*
X199111320Y-172870002D01*
X199195711Y-172895602D01*
X199156774Y-172989602D01*
X199117000Y-173189561D01*
X199117000Y-173393439D01*
X199156774Y-173593398D01*
X199234795Y-173781756D01*
X199348063Y-173951274D01*
X199492226Y-174095437D01*
X199661744Y-174208705D01*
X199850102Y-174286726D01*
X200050061Y-174326500D01*
X200253939Y-174326500D01*
X200453898Y-174286726D01*
X200642256Y-174208705D01*
X200811774Y-174095437D01*
X200955937Y-173951274D01*
X201069205Y-173781756D01*
X201147226Y-173593398D01*
X201187000Y-173393439D01*
X201187000Y-173189561D01*
X201147226Y-172989602D01*
X201104606Y-172886709D01*
X201159680Y-172870002D01*
X201269994Y-172811037D01*
X201366685Y-172731685D01*
X201446037Y-172634994D01*
X201485500Y-172561165D01*
X201524963Y-172634994D01*
X201604315Y-172731685D01*
X201701006Y-172811037D01*
X201811320Y-172870002D01*
X201931018Y-172906312D01*
X202055500Y-172918572D01*
X203615500Y-172918572D01*
X203739982Y-172906312D01*
X203859680Y-172870002D01*
X203969994Y-172811037D01*
X204053019Y-172742900D01*
X205030350Y-172742900D01*
X205397100Y-173109651D01*
X205397101Y-177473847D01*
X202740450Y-180130500D01*
X202717061Y-180130500D01*
X202517102Y-180170274D01*
X202328744Y-180248295D01*
X202159226Y-180361563D01*
X202015063Y-180505726D01*
X201901795Y-180675244D01*
X201823774Y-180863602D01*
X201784000Y-181063561D01*
X201784000Y-181086949D01*
X200714850Y-182156100D01*
X192507162Y-182156100D01*
X192468499Y-182152292D01*
X192429836Y-182156100D01*
X192429827Y-182156100D01*
X192314143Y-182167494D01*
X192165717Y-182212518D01*
X192028928Y-182285634D01*
X191909031Y-182384031D01*
X191884378Y-182414071D01*
X191878635Y-182419814D01*
X191439234Y-182419023D01*
X191350274Y-182330063D01*
X191180756Y-182216795D01*
X190992398Y-182138774D01*
X190792439Y-182099000D01*
X190588561Y-182099000D01*
X190388602Y-182138774D01*
X190200244Y-182216795D01*
X190030726Y-182330063D01*
X190014189Y-182346600D01*
X176441662Y-182346600D01*
X176402999Y-182342792D01*
X176364336Y-182346600D01*
X176364327Y-182346600D01*
X176248643Y-182357994D01*
X176138209Y-182391493D01*
X172783705Y-182385458D01*
X172758924Y-182387854D01*
X172735086Y-182395038D01*
X172713109Y-182406735D01*
X172693835Y-182422494D01*
X172678006Y-182441711D01*
X172666231Y-182463646D01*
X172658961Y-182487457D01*
X172656476Y-182512458D01*
X172656500Y-188722000D01*
X169454520Y-188722000D01*
X169649766Y-188561766D01*
X169866579Y-188297578D01*
X170027686Y-187996168D01*
X170126895Y-187669119D01*
X170160394Y-187329000D01*
X170126895Y-186988881D01*
X170027686Y-186661832D01*
X169866579Y-186360422D01*
X169649766Y-186096234D01*
X169385578Y-185879421D01*
X169084168Y-185718314D01*
X168757119Y-185619105D01*
X168502225Y-185594000D01*
X167031775Y-185594000D01*
X166776881Y-185619105D01*
X166449832Y-185718314D01*
X166148422Y-185879421D01*
X165884234Y-186096234D01*
X165667421Y-186360422D01*
X165506314Y-186661832D01*
X165480628Y-186746507D01*
X165479382Y-179707386D01*
X165506314Y-179796168D01*
X165667421Y-180097578D01*
X165884234Y-180361766D01*
X165890008Y-180366504D01*
X165878928Y-180479000D01*
X165878928Y-181979000D01*
X165891188Y-182103482D01*
X165927498Y-182223180D01*
X165986463Y-182333494D01*
X166065815Y-182430185D01*
X166105940Y-182463114D01*
X165981236Y-182696419D01*
X165902040Y-182957493D01*
X165875299Y-183229000D01*
X165902040Y-183500507D01*
X165981236Y-183761581D01*
X166109843Y-184002188D01*
X166282919Y-184213081D01*
X166493812Y-184386157D01*
X166734419Y-184514764D01*
X166995493Y-184593960D01*
X167198963Y-184614000D01*
X168335037Y-184614000D01*
X168538507Y-184593960D01*
X168799581Y-184514764D01*
X169040188Y-184386157D01*
X169251081Y-184213081D01*
X169424157Y-184002188D01*
X169552764Y-183761581D01*
X169631960Y-183500507D01*
X169658701Y-183229000D01*
X169631960Y-182957493D01*
X169552764Y-182696419D01*
X169428060Y-182463114D01*
X169468185Y-182430185D01*
X169547537Y-182333494D01*
X169606502Y-182223180D01*
X169642812Y-182103482D01*
X169655072Y-181979000D01*
X169655072Y-180479000D01*
X169643992Y-180366504D01*
X169649766Y-180361766D01*
X169866579Y-180097578D01*
X170027686Y-179796168D01*
X170126895Y-179469119D01*
X170160394Y-179129000D01*
X170126895Y-178788881D01*
X170027686Y-178461832D01*
X169866579Y-178160422D01*
X169649766Y-177896234D01*
X169438956Y-177723227D01*
X170818230Y-177709705D01*
X170842981Y-177707022D01*
X170866734Y-177699562D01*
X170888574Y-177687611D01*
X170907664Y-177671629D01*
X170923268Y-177652230D01*
X170934789Y-177630159D01*
X170941782Y-177606265D01*
X170943985Y-177582375D01*
X170934105Y-173850183D01*
X171094061Y-173882000D01*
X171297939Y-173882000D01*
X171497898Y-173842226D01*
X171686256Y-173764205D01*
X171855774Y-173650937D01*
X171999937Y-173506774D01*
X172113205Y-173337256D01*
X172191226Y-173148898D01*
X172231000Y-172948939D01*
X172231000Y-172745061D01*
X172191226Y-172545102D01*
X172113205Y-172356744D01*
X171999937Y-172187226D01*
X171855774Y-172043063D01*
X171686256Y-171929795D01*
X171497898Y-171851774D01*
X171297939Y-171812000D01*
X171094061Y-171812000D01*
X170928797Y-171844873D01*
X170917011Y-167392278D01*
X170941550Y-167333035D01*
X171001500Y-167031647D01*
X171001500Y-166724353D01*
X170941550Y-166422965D01*
X170914271Y-166357106D01*
X170896873Y-159785000D01*
X171043939Y-159785000D01*
X171243898Y-159745226D01*
X171432256Y-159667205D01*
X171601774Y-159553937D01*
X171745937Y-159409774D01*
X171859205Y-159240256D01*
X171937226Y-159051898D01*
X171977000Y-158851939D01*
X171977000Y-158648061D01*
X171937226Y-158448102D01*
X171859205Y-158259744D01*
X171745937Y-158090226D01*
X171601774Y-157946063D01*
X171432256Y-157832795D01*
X171243898Y-157754774D01*
X171043939Y-157715000D01*
X170891394Y-157715000D01*
X170883377Y-154686312D01*
X170958050Y-154506035D01*
X171018000Y-154204647D01*
X171018000Y-153897353D01*
X170958050Y-153595965D01*
X170879992Y-153407515D01*
X170878839Y-152972113D01*
X174051759Y-152987346D01*
X174076547Y-152985024D01*
X174100406Y-152977912D01*
X174122419Y-152966281D01*
X174141739Y-152950580D01*
X174157626Y-152931411D01*
X174169467Y-152909511D01*
X174176808Y-152885721D01*
X174179369Y-152860381D01*
X174181366Y-145436957D01*
X174223226Y-145335898D01*
X174263000Y-145135939D01*
X174263000Y-144932061D01*
X174223226Y-144732102D01*
X174181582Y-144631566D01*
X174181632Y-144446687D01*
X174181632Y-144446475D01*
X174180500Y-143637000D01*
X174180500Y-143129000D01*
X174178060Y-143104224D01*
X174170833Y-143080399D01*
X174159097Y-143058443D01*
X174143303Y-143039197D01*
X174124057Y-143023403D01*
X174102101Y-143011667D01*
X174078276Y-143004440D01*
X174053499Y-143002000D01*
X170658889Y-143002019D01*
X170625426Y-138367322D01*
X180402686Y-138429997D01*
X180427478Y-138427716D01*
X180451348Y-138420642D01*
X180473379Y-138409047D01*
X180492725Y-138393376D01*
X180508642Y-138374233D01*
X180520519Y-138352352D01*
X180527898Y-138328574D01*
X180530496Y-138303946D01*
X180561259Y-134173957D01*
X182498996Y-134175405D01*
G36*
X215392000Y-117665500D02*
G01*
X211328000Y-117665500D01*
X211328000Y-110808789D01*
X212025218Y-110815830D01*
X212026803Y-110815836D01*
X215392000Y-110807804D01*
X215392000Y-117665500D01*
X215392000Y-117665500D01*
G37*
X215392000Y-117665500D02*
X211328000Y-117665500D01*
X211328000Y-110808789D01*
X212025218Y-110815830D01*
X212026803Y-110815836D01*
X215392000Y-110807804D01*
X215392000Y-117665500D01*
G36*
X219138500Y-99377500D02*
G01*
X219140940Y-99402276D01*
X219148167Y-99426101D01*
X219159903Y-99448057D01*
X219175697Y-99467303D01*
X219194943Y-99483097D01*
X219216899Y-99494833D01*
X219240724Y-99502060D01*
X219265500Y-99504500D01*
X224218500Y-99504500D01*
X224218500Y-110553500D01*
X224220940Y-110578276D01*
X224228167Y-110602101D01*
X224239903Y-110624057D01*
X224255697Y-110643303D01*
X224274943Y-110659097D01*
X224296899Y-110670833D01*
X224320724Y-110678060D01*
X224345500Y-110680500D01*
X237426500Y-110680500D01*
X237426500Y-117919239D01*
X237288111Y-144903439D01*
X237166059Y-144608780D01*
X236905049Y-144218152D01*
X236572848Y-143885951D01*
X236182220Y-143624941D01*
X235748178Y-143445155D01*
X235287401Y-143353501D01*
X234817597Y-143353501D01*
X234356820Y-143445155D01*
X233922778Y-143624941D01*
X233532150Y-143885951D01*
X233199949Y-144218152D01*
X232938939Y-144608780D01*
X232839229Y-144849501D01*
X227355102Y-144849501D01*
X226176371Y-143670770D01*
X226340266Y-143536266D01*
X226557079Y-143272078D01*
X226718186Y-142970668D01*
X226817395Y-142643619D01*
X226850894Y-142303500D01*
X226817395Y-141963381D01*
X226718186Y-141636332D01*
X226557079Y-141334922D01*
X226340266Y-141070734D01*
X226076078Y-140853921D01*
X225774668Y-140692814D01*
X225447619Y-140593605D01*
X225192725Y-140568500D01*
X225022275Y-140568500D01*
X224767381Y-140593605D01*
X224440332Y-140692814D01*
X224138922Y-140853921D01*
X223874734Y-141070734D01*
X223657921Y-141334922D01*
X223496814Y-141636332D01*
X223397605Y-141963381D01*
X223364106Y-142303500D01*
X223397605Y-142643619D01*
X223496814Y-142970668D01*
X223657921Y-143272078D01*
X223874734Y-143536266D01*
X224138922Y-143753079D01*
X224218501Y-143795615D01*
X224218501Y-143815465D01*
X224214200Y-143859134D01*
X224231364Y-144033408D01*
X224282198Y-144200986D01*
X224364748Y-144355425D01*
X224415840Y-144417680D01*
X224475842Y-144490793D01*
X224509759Y-144518628D01*
X226327368Y-146336237D01*
X226355208Y-146370160D01*
X226490576Y-146481254D01*
X226645016Y-146563804D01*
X226710925Y-146583797D01*
X226812591Y-146614637D01*
X226845791Y-146617907D01*
X226943200Y-146627501D01*
X226943206Y-146627501D01*
X226986866Y-146631801D01*
X227030526Y-146627501D01*
X232839229Y-146627501D01*
X232938939Y-146868222D01*
X233199949Y-147258850D01*
X233532150Y-147591051D01*
X233922778Y-147852061D01*
X234356820Y-148031847D01*
X234817597Y-148123501D01*
X235287401Y-148123501D01*
X235748178Y-148031847D01*
X236182220Y-147852061D01*
X236572848Y-147591051D01*
X236905049Y-147258850D01*
X237166059Y-146868222D01*
X237279438Y-146594501D01*
X237234358Y-155384500D01*
X230124000Y-155384500D01*
X230099224Y-155386940D01*
X230075399Y-155394167D01*
X230053443Y-155405903D01*
X230034197Y-155421697D01*
X230018403Y-155440943D01*
X230006667Y-155462899D01*
X229999440Y-155486724D01*
X229997000Y-155511500D01*
X229997000Y-165671500D01*
X229999440Y-165696276D01*
X230006667Y-165720101D01*
X230018403Y-165742057D01*
X230034197Y-165761303D01*
X230053443Y-165777097D01*
X230075399Y-165788833D01*
X230099224Y-165796060D01*
X230124000Y-165798500D01*
X237180950Y-165798500D01*
X237109648Y-179701436D01*
X222884729Y-179746958D01*
X222859960Y-179749477D01*
X222836159Y-179756780D01*
X222814240Y-179768587D01*
X222795046Y-179784442D01*
X222779313Y-179803738D01*
X222767647Y-179825732D01*
X222760497Y-179849579D01*
X222758135Y-179873953D01*
X222758004Y-184278344D01*
X216914649Y-184340507D01*
X216889900Y-184343211D01*
X216866154Y-184350691D01*
X216844323Y-184362660D01*
X216833965Y-184370550D01*
X215182965Y-185767550D01*
X215181665Y-185768665D01*
X213721165Y-187038665D01*
X213704070Y-187056764D01*
X213690834Y-187077851D01*
X213681967Y-187101114D01*
X213677500Y-187134500D01*
X213677500Y-197040500D01*
X174560410Y-197040500D01*
X174499094Y-189927946D01*
X181399263Y-189898002D01*
X181262262Y-190035003D01*
X181228340Y-190062842D01*
X181194514Y-190104058D01*
X181088647Y-190083000D01*
X180781353Y-190083000D01*
X180479965Y-190142950D01*
X180196063Y-190260546D01*
X179940558Y-190431269D01*
X179723269Y-190648558D01*
X179552546Y-190904063D01*
X179434950Y-191187965D01*
X179375000Y-191489353D01*
X179375000Y-191796647D01*
X179434950Y-192098035D01*
X179552546Y-192381937D01*
X179723269Y-192637442D01*
X179940558Y-192854731D01*
X180196063Y-193025454D01*
X180479965Y-193143050D01*
X180781353Y-193203000D01*
X181088647Y-193203000D01*
X181390035Y-193143050D01*
X181673937Y-193025454D01*
X181929442Y-192854731D01*
X182146731Y-192637442D01*
X182317454Y-192381937D01*
X182435050Y-192098035D01*
X182495000Y-191796647D01*
X182495000Y-191489353D01*
X182470644Y-191366906D01*
X182491658Y-191349660D01*
X182602752Y-191214292D01*
X182608848Y-191202887D01*
X183924693Y-189887043D01*
X197728254Y-189827141D01*
X197654747Y-189916710D01*
X197572197Y-190071150D01*
X197521364Y-190238727D01*
X197508500Y-190369334D01*
X197508500Y-190369340D01*
X197504200Y-190413000D01*
X197508500Y-190456660D01*
X197508500Y-190551315D01*
X197403058Y-190621769D01*
X197185769Y-190839058D01*
X197015046Y-191094563D01*
X196897450Y-191378465D01*
X196837500Y-191679853D01*
X196837500Y-191987147D01*
X196897450Y-192288535D01*
X197015046Y-192572437D01*
X197185769Y-192827942D01*
X197403058Y-193045231D01*
X197658563Y-193215954D01*
X197942465Y-193333550D01*
X198243853Y-193393500D01*
X198551147Y-193393500D01*
X198852535Y-193333550D01*
X199136437Y-193215954D01*
X199391942Y-193045231D01*
X199609231Y-192827942D01*
X199779954Y-192572437D01*
X199897550Y-192288535D01*
X199957500Y-191987147D01*
X199957500Y-191679853D01*
X199897550Y-191378465D01*
X199779954Y-191094563D01*
X199609231Y-190839058D01*
X199418954Y-190648781D01*
X200251544Y-189816191D01*
X203630474Y-189801528D01*
X203655240Y-189798980D01*
X203679033Y-189791650D01*
X203700938Y-189779818D01*
X203720114Y-189763941D01*
X203735825Y-189744628D01*
X203747466Y-189722620D01*
X203754589Y-189698765D01*
X203756923Y-189674282D01*
X203744438Y-183256859D01*
X205376750Y-181898108D01*
X205377751Y-181897266D01*
X206612182Y-180848000D01*
X216154000Y-180848000D01*
X216178776Y-180845560D01*
X216202601Y-180838333D01*
X216224557Y-180826597D01*
X216243803Y-180810803D01*
X216259597Y-180791557D01*
X216271333Y-180769601D01*
X216278560Y-180745776D01*
X216281000Y-180721221D01*
X216376250Y-125886987D01*
X216376232Y-125884611D01*
X216344500Y-124014406D01*
X216344500Y-120459500D01*
X216344501Y-120142000D01*
X216342061Y-120117224D01*
X216334834Y-120093399D01*
X216323098Y-120071443D01*
X216307304Y-120052197D01*
X216288058Y-120036403D01*
X216266102Y-120024667D01*
X216242277Y-120017440D01*
X216217501Y-120015000D01*
X211313265Y-120015000D01*
X211326871Y-118491000D01*
X216217500Y-118491000D01*
X216242276Y-118488560D01*
X216266101Y-118481333D01*
X216288057Y-118469597D01*
X216307303Y-118453803D01*
X216323097Y-118434557D01*
X216334833Y-118412601D01*
X216342060Y-118388776D01*
X216344500Y-118364000D01*
X216344500Y-106108500D01*
X216342060Y-106083724D01*
X216334833Y-106059899D01*
X216323097Y-106037943D01*
X216307303Y-106018697D01*
X216288057Y-106002903D01*
X216266101Y-105991167D01*
X216242276Y-105983940D01*
X216217500Y-105981500D01*
X211328000Y-105981500D01*
X211328000Y-92900500D01*
X219138500Y-92900500D01*
X219138500Y-99377500D01*
X219138500Y-99377500D01*
G37*
X219138500Y-99377500D02*
X219140940Y-99402276D01*
X219148167Y-99426101D01*
X219159903Y-99448057D01*
X219175697Y-99467303D01*
X219194943Y-99483097D01*
X219216899Y-99494833D01*
X219240724Y-99502060D01*
X219265500Y-99504500D01*
X224218500Y-99504500D01*
X224218500Y-110553500D01*
X224220940Y-110578276D01*
X224228167Y-110602101D01*
X224239903Y-110624057D01*
X224255697Y-110643303D01*
X224274943Y-110659097D01*
X224296899Y-110670833D01*
X224320724Y-110678060D01*
X224345500Y-110680500D01*
X237426500Y-110680500D01*
X237426500Y-117919239D01*
X237288111Y-144903439D01*
X237166059Y-144608780D01*
X236905049Y-144218152D01*
X236572848Y-143885951D01*
X236182220Y-143624941D01*
X235748178Y-143445155D01*
X235287401Y-143353501D01*
X234817597Y-143353501D01*
X234356820Y-143445155D01*
X233922778Y-143624941D01*
X233532150Y-143885951D01*
X233199949Y-144218152D01*
X232938939Y-144608780D01*
X232839229Y-144849501D01*
X227355102Y-144849501D01*
X226176371Y-143670770D01*
X226340266Y-143536266D01*
X226557079Y-143272078D01*
X226718186Y-142970668D01*
X226817395Y-142643619D01*
X226850894Y-142303500D01*
X226817395Y-141963381D01*
X226718186Y-141636332D01*
X226557079Y-141334922D01*
X226340266Y-141070734D01*
X226076078Y-140853921D01*
X225774668Y-140692814D01*
X225447619Y-140593605D01*
X225192725Y-140568500D01*
X225022275Y-140568500D01*
X224767381Y-140593605D01*
X224440332Y-140692814D01*
X224138922Y-140853921D01*
X223874734Y-141070734D01*
X223657921Y-141334922D01*
X223496814Y-141636332D01*
X223397605Y-141963381D01*
X223364106Y-142303500D01*
X223397605Y-142643619D01*
X223496814Y-142970668D01*
X223657921Y-143272078D01*
X223874734Y-143536266D01*
X224138922Y-143753079D01*
X224218501Y-143795615D01*
X224218501Y-143815465D01*
X224214200Y-143859134D01*
X224231364Y-144033408D01*
X224282198Y-144200986D01*
X224364748Y-144355425D01*
X224415840Y-144417680D01*
X224475842Y-144490793D01*
X224509759Y-144518628D01*
X226327368Y-146336237D01*
X226355208Y-146370160D01*
X226490576Y-146481254D01*
X226645016Y-146563804D01*
X226710925Y-146583797D01*
X226812591Y-146614637D01*
X226845791Y-146617907D01*
X226943200Y-146627501D01*
X226943206Y-146627501D01*
X226986866Y-146631801D01*
X227030526Y-146627501D01*
X232839229Y-146627501D01*
X232938939Y-146868222D01*
X233199949Y-147258850D01*
X233532150Y-147591051D01*
X233922778Y-147852061D01*
X234356820Y-148031847D01*
X234817597Y-148123501D01*
X235287401Y-148123501D01*
X235748178Y-148031847D01*
X236182220Y-147852061D01*
X236572848Y-147591051D01*
X236905049Y-147258850D01*
X237166059Y-146868222D01*
X237279438Y-146594501D01*
X237234358Y-155384500D01*
X230124000Y-155384500D01*
X230099224Y-155386940D01*
X230075399Y-155394167D01*
X230053443Y-155405903D01*
X230034197Y-155421697D01*
X230018403Y-155440943D01*
X230006667Y-155462899D01*
X229999440Y-155486724D01*
X229997000Y-155511500D01*
X229997000Y-165671500D01*
X229999440Y-165696276D01*
X230006667Y-165720101D01*
X230018403Y-165742057D01*
X230034197Y-165761303D01*
X230053443Y-165777097D01*
X230075399Y-165788833D01*
X230099224Y-165796060D01*
X230124000Y-165798500D01*
X237180950Y-165798500D01*
X237109648Y-179701436D01*
X222884729Y-179746958D01*
X222859960Y-179749477D01*
X222836159Y-179756780D01*
X222814240Y-179768587D01*
X222795046Y-179784442D01*
X222779313Y-179803738D01*
X222767647Y-179825732D01*
X222760497Y-179849579D01*
X222758135Y-179873953D01*
X222758004Y-184278344D01*
X216914649Y-184340507D01*
X216889900Y-184343211D01*
X216866154Y-184350691D01*
X216844323Y-184362660D01*
X216833965Y-184370550D01*
X215182965Y-185767550D01*
X215181665Y-185768665D01*
X213721165Y-187038665D01*
X213704070Y-187056764D01*
X213690834Y-187077851D01*
X213681967Y-187101114D01*
X213677500Y-187134500D01*
X213677500Y-197040500D01*
X174560410Y-197040500D01*
X174499094Y-189927946D01*
X181399263Y-189898002D01*
X181262262Y-190035003D01*
X181228340Y-190062842D01*
X181194514Y-190104058D01*
X181088647Y-190083000D01*
X180781353Y-190083000D01*
X180479965Y-190142950D01*
X180196063Y-190260546D01*
X179940558Y-190431269D01*
X179723269Y-190648558D01*
X179552546Y-190904063D01*
X179434950Y-191187965D01*
X179375000Y-191489353D01*
X179375000Y-191796647D01*
X179434950Y-192098035D01*
X179552546Y-192381937D01*
X179723269Y-192637442D01*
X179940558Y-192854731D01*
X180196063Y-193025454D01*
X180479965Y-193143050D01*
X180781353Y-193203000D01*
X181088647Y-193203000D01*
X181390035Y-193143050D01*
X181673937Y-193025454D01*
X181929442Y-192854731D01*
X182146731Y-192637442D01*
X182317454Y-192381937D01*
X182435050Y-192098035D01*
X182495000Y-191796647D01*
X182495000Y-191489353D01*
X182470644Y-191366906D01*
X182491658Y-191349660D01*
X182602752Y-191214292D01*
X182608848Y-191202887D01*
X183924693Y-189887043D01*
X197728254Y-189827141D01*
X197654747Y-189916710D01*
X197572197Y-190071150D01*
X197521364Y-190238727D01*
X197508500Y-190369334D01*
X197508500Y-190369340D01*
X197504200Y-190413000D01*
X197508500Y-190456660D01*
X197508500Y-190551315D01*
X197403058Y-190621769D01*
X197185769Y-190839058D01*
X197015046Y-191094563D01*
X196897450Y-191378465D01*
X196837500Y-191679853D01*
X196837500Y-191987147D01*
X196897450Y-192288535D01*
X197015046Y-192572437D01*
X197185769Y-192827942D01*
X197403058Y-193045231D01*
X197658563Y-193215954D01*
X197942465Y-193333550D01*
X198243853Y-193393500D01*
X198551147Y-193393500D01*
X198852535Y-193333550D01*
X199136437Y-193215954D01*
X199391942Y-193045231D01*
X199609231Y-192827942D01*
X199779954Y-192572437D01*
X199897550Y-192288535D01*
X199957500Y-191987147D01*
X199957500Y-191679853D01*
X199897550Y-191378465D01*
X199779954Y-191094563D01*
X199609231Y-190839058D01*
X199418954Y-190648781D01*
X200251544Y-189816191D01*
X203630474Y-189801528D01*
X203655240Y-189798980D01*
X203679033Y-189791650D01*
X203700938Y-189779818D01*
X203720114Y-189763941D01*
X203735825Y-189744628D01*
X203747466Y-189722620D01*
X203754589Y-189698765D01*
X203756923Y-189674282D01*
X203744438Y-183256859D01*
X205376750Y-181898108D01*
X205377751Y-181897266D01*
X206612182Y-180848000D01*
X216154000Y-180848000D01*
X216178776Y-180845560D01*
X216202601Y-180838333D01*
X216224557Y-180826597D01*
X216243803Y-180810803D01*
X216259597Y-180791557D01*
X216271333Y-180769601D01*
X216278560Y-180745776D01*
X216281000Y-180721221D01*
X216376250Y-125886987D01*
X216376232Y-125884611D01*
X216344500Y-124014406D01*
X216344500Y-120459500D01*
X216344501Y-120142000D01*
X216342061Y-120117224D01*
X216334834Y-120093399D01*
X216323098Y-120071443D01*
X216307304Y-120052197D01*
X216288058Y-120036403D01*
X216266102Y-120024667D01*
X216242277Y-120017440D01*
X216217501Y-120015000D01*
X211313265Y-120015000D01*
X211326871Y-118491000D01*
X216217500Y-118491000D01*
X216242276Y-118488560D01*
X216266101Y-118481333D01*
X216288057Y-118469597D01*
X216307303Y-118453803D01*
X216323097Y-118434557D01*
X216334833Y-118412601D01*
X216342060Y-118388776D01*
X216344500Y-118364000D01*
X216344500Y-106108500D01*
X216342060Y-106083724D01*
X216334833Y-106059899D01*
X216323097Y-106037943D01*
X216307303Y-106018697D01*
X216288057Y-106002903D01*
X216266101Y-105991167D01*
X216242276Y-105983940D01*
X216217500Y-105981500D01*
X211328000Y-105981500D01*
X211328000Y-92900500D01*
X219138500Y-92900500D01*
X219138500Y-99377500D01*
G36*
X243649500Y-147510500D02*
G01*
X243651940Y-147535276D01*
X243659167Y-147559101D01*
X243670903Y-147581057D01*
X243686697Y-147600303D01*
X243705943Y-147616097D01*
X243727899Y-147627833D01*
X243751724Y-147635060D01*
X243776500Y-147637500D01*
X250380500Y-147637500D01*
X250380500Y-169481500D01*
X243522500Y-169481500D01*
X243497724Y-169483940D01*
X243473899Y-169491167D01*
X243451943Y-169502903D01*
X243432697Y-169518697D01*
X243416903Y-169537943D01*
X243405167Y-169559899D01*
X243397940Y-169583724D01*
X243395500Y-169608500D01*
X243395500Y-179070000D01*
X238366902Y-179070000D01*
X238567184Y-140017500D01*
X243649500Y-140017500D01*
X243649500Y-147510500D01*
X243649500Y-147510500D01*
G37*
X243649500Y-147510500D02*
X243651940Y-147535276D01*
X243659167Y-147559101D01*
X243670903Y-147581057D01*
X243686697Y-147600303D01*
X243705943Y-147616097D01*
X243727899Y-147627833D01*
X243751724Y-147635060D01*
X243776500Y-147637500D01*
X250380500Y-147637500D01*
X250380500Y-169481500D01*
X243522500Y-169481500D01*
X243497724Y-169483940D01*
X243473899Y-169491167D01*
X243451943Y-169502903D01*
X243432697Y-169518697D01*
X243416903Y-169537943D01*
X243405167Y-169559899D01*
X243397940Y-169583724D01*
X243395500Y-169608500D01*
X243395500Y-179070000D01*
X238366902Y-179070000D01*
X238567184Y-140017500D01*
X243649500Y-140017500D01*
X243649500Y-147510500D01*
G36*
X273240783Y-181991280D02*
G01*
X244792500Y-182054218D01*
X244792500Y-176310140D01*
X248928500Y-176310140D01*
X248928500Y-176876860D01*
X249039061Y-177432690D01*
X249255935Y-177956271D01*
X249570788Y-178427481D01*
X249971519Y-178828212D01*
X250442729Y-179143065D01*
X250966310Y-179359939D01*
X251522140Y-179470500D01*
X252088860Y-179470500D01*
X252644690Y-179359939D01*
X253168271Y-179143065D01*
X253639481Y-178828212D01*
X254040212Y-178427481D01*
X254355065Y-177956271D01*
X254571939Y-177432690D01*
X254682500Y-176876860D01*
X254682500Y-176310140D01*
X254571939Y-175754310D01*
X254355065Y-175230729D01*
X254040212Y-174759519D01*
X253639481Y-174358788D01*
X253168271Y-174043935D01*
X252644690Y-173827061D01*
X252088860Y-173716500D01*
X251522140Y-173716500D01*
X250966310Y-173827061D01*
X250442729Y-174043935D01*
X249971519Y-174358788D01*
X249570788Y-174759519D01*
X249255935Y-175230729D01*
X249039061Y-175754310D01*
X248928500Y-176310140D01*
X244792500Y-176310140D01*
X244792500Y-172010606D01*
X245516320Y-171286786D01*
X246049739Y-170776222D01*
X251770447Y-170878311D01*
X251795263Y-170876313D01*
X251819213Y-170869512D01*
X251841375Y-170858170D01*
X251860899Y-170842722D01*
X251877034Y-170823761D01*
X251889160Y-170802018D01*
X251896811Y-170778326D01*
X251899713Y-170751393D01*
X251909288Y-151193732D01*
X251909198Y-151188892D01*
X251904500Y-151064112D01*
X251904500Y-146367500D01*
X254825500Y-146367500D01*
X254850276Y-146365060D01*
X254874101Y-146357833D01*
X254896057Y-146346097D01*
X254915303Y-146330303D01*
X254931097Y-146311057D01*
X254942833Y-146289101D01*
X254950060Y-146265276D01*
X254952500Y-146240500D01*
X254952500Y-143357595D01*
X254979499Y-143221861D01*
X254979499Y-142655141D01*
X254952500Y-142519407D01*
X254952500Y-139001500D01*
X254950060Y-138976724D01*
X254942833Y-138952899D01*
X254931097Y-138930943D01*
X254915303Y-138911697D01*
X254896057Y-138895903D01*
X254874101Y-138884167D01*
X254850276Y-138876940D01*
X254825500Y-138874500D01*
X245173500Y-138874500D01*
X245173500Y-132655141D01*
X249225499Y-132655141D01*
X249225499Y-133221861D01*
X249336060Y-133777691D01*
X249552934Y-134301272D01*
X249867787Y-134772482D01*
X250268518Y-135173213D01*
X250739728Y-135488066D01*
X251263309Y-135704940D01*
X251819139Y-135815501D01*
X252385859Y-135815501D01*
X252941689Y-135704940D01*
X253465270Y-135488066D01*
X253936480Y-135173213D01*
X254337211Y-134772482D01*
X254396666Y-134683500D01*
X262699500Y-134683500D01*
X262699500Y-146494500D01*
X262701940Y-146519276D01*
X262709167Y-146543101D01*
X262720903Y-146565057D01*
X262736697Y-146584303D01*
X262755943Y-146600097D01*
X262777899Y-146611833D01*
X262801724Y-146619060D01*
X262826500Y-146621500D01*
X269430500Y-146621500D01*
X269455276Y-146619060D01*
X269479101Y-146611833D01*
X269501057Y-146600097D01*
X269520303Y-146584303D01*
X269536097Y-146565057D01*
X269547833Y-146543101D01*
X269555060Y-146519276D01*
X269557500Y-146494500D01*
X269557500Y-134683500D01*
X269555060Y-134658724D01*
X269547833Y-134634899D01*
X269536097Y-134612943D01*
X269520303Y-134593697D01*
X269501057Y-134577903D01*
X269479101Y-134566167D01*
X269455276Y-134558940D01*
X269430500Y-134556500D01*
X262826500Y-134556500D01*
X262801724Y-134558940D01*
X262777899Y-134566167D01*
X262755943Y-134577903D01*
X262736697Y-134593697D01*
X262720903Y-134612943D01*
X262709167Y-134634899D01*
X262701940Y-134658724D01*
X262699500Y-134683500D01*
X254396666Y-134683500D01*
X254652064Y-134301272D01*
X254868938Y-133777691D01*
X254979499Y-133221861D01*
X254979499Y-132655141D01*
X254868938Y-132099311D01*
X254652064Y-131575730D01*
X254337211Y-131104520D01*
X253936480Y-130703789D01*
X253465270Y-130388936D01*
X252941689Y-130172062D01*
X252385859Y-130061501D01*
X251819139Y-130061501D01*
X251263309Y-130172062D01*
X250739728Y-130388936D01*
X250268518Y-130703789D01*
X249867787Y-131104520D01*
X249552934Y-131575730D01*
X249336060Y-132099311D01*
X249225499Y-132655141D01*
X245173500Y-132655141D01*
X245173500Y-125412500D01*
X273367216Y-125412500D01*
X273240783Y-181991280D01*
X273240783Y-181991280D01*
G37*
X273240783Y-181991280D02*
X244792500Y-182054218D01*
X244792500Y-176310140D01*
X248928500Y-176310140D01*
X248928500Y-176876860D01*
X249039061Y-177432690D01*
X249255935Y-177956271D01*
X249570788Y-178427481D01*
X249971519Y-178828212D01*
X250442729Y-179143065D01*
X250966310Y-179359939D01*
X251522140Y-179470500D01*
X252088860Y-179470500D01*
X252644690Y-179359939D01*
X253168271Y-179143065D01*
X253639481Y-178828212D01*
X254040212Y-178427481D01*
X254355065Y-177956271D01*
X254571939Y-177432690D01*
X254682500Y-176876860D01*
X254682500Y-176310140D01*
X254571939Y-175754310D01*
X254355065Y-175230729D01*
X254040212Y-174759519D01*
X253639481Y-174358788D01*
X253168271Y-174043935D01*
X252644690Y-173827061D01*
X252088860Y-173716500D01*
X251522140Y-173716500D01*
X250966310Y-173827061D01*
X250442729Y-174043935D01*
X249971519Y-174358788D01*
X249570788Y-174759519D01*
X249255935Y-175230729D01*
X249039061Y-175754310D01*
X248928500Y-176310140D01*
X244792500Y-176310140D01*
X244792500Y-172010606D01*
X245516320Y-171286786D01*
X246049739Y-170776222D01*
X251770447Y-170878311D01*
X251795263Y-170876313D01*
X251819213Y-170869512D01*
X251841375Y-170858170D01*
X251860899Y-170842722D01*
X251877034Y-170823761D01*
X251889160Y-170802018D01*
X251896811Y-170778326D01*
X251899713Y-170751393D01*
X251909288Y-151193732D01*
X251909198Y-151188892D01*
X251904500Y-151064112D01*
X251904500Y-146367500D01*
X254825500Y-146367500D01*
X254850276Y-146365060D01*
X254874101Y-146357833D01*
X254896057Y-146346097D01*
X254915303Y-146330303D01*
X254931097Y-146311057D01*
X254942833Y-146289101D01*
X254950060Y-146265276D01*
X254952500Y-146240500D01*
X254952500Y-143357595D01*
X254979499Y-143221861D01*
X254979499Y-142655141D01*
X254952500Y-142519407D01*
X254952500Y-139001500D01*
X254950060Y-138976724D01*
X254942833Y-138952899D01*
X254931097Y-138930943D01*
X254915303Y-138911697D01*
X254896057Y-138895903D01*
X254874101Y-138884167D01*
X254850276Y-138876940D01*
X254825500Y-138874500D01*
X245173500Y-138874500D01*
X245173500Y-132655141D01*
X249225499Y-132655141D01*
X249225499Y-133221861D01*
X249336060Y-133777691D01*
X249552934Y-134301272D01*
X249867787Y-134772482D01*
X250268518Y-135173213D01*
X250739728Y-135488066D01*
X251263309Y-135704940D01*
X251819139Y-135815501D01*
X252385859Y-135815501D01*
X252941689Y-135704940D01*
X253465270Y-135488066D01*
X253936480Y-135173213D01*
X254337211Y-134772482D01*
X254396666Y-134683500D01*
X262699500Y-134683500D01*
X262699500Y-146494500D01*
X262701940Y-146519276D01*
X262709167Y-146543101D01*
X262720903Y-146565057D01*
X262736697Y-146584303D01*
X262755943Y-146600097D01*
X262777899Y-146611833D01*
X262801724Y-146619060D01*
X262826500Y-146621500D01*
X269430500Y-146621500D01*
X269455276Y-146619060D01*
X269479101Y-146611833D01*
X269501057Y-146600097D01*
X269520303Y-146584303D01*
X269536097Y-146565057D01*
X269547833Y-146543101D01*
X269555060Y-146519276D01*
X269557500Y-146494500D01*
X269557500Y-134683500D01*
X269555060Y-134658724D01*
X269547833Y-134634899D01*
X269536097Y-134612943D01*
X269520303Y-134593697D01*
X269501057Y-134577903D01*
X269479101Y-134566167D01*
X269455276Y-134558940D01*
X269430500Y-134556500D01*
X262826500Y-134556500D01*
X262801724Y-134558940D01*
X262777899Y-134566167D01*
X262755943Y-134577903D01*
X262736697Y-134593697D01*
X262720903Y-134612943D01*
X262709167Y-134634899D01*
X262701940Y-134658724D01*
X262699500Y-134683500D01*
X254396666Y-134683500D01*
X254652064Y-134301272D01*
X254868938Y-133777691D01*
X254979499Y-133221861D01*
X254979499Y-132655141D01*
X254868938Y-132099311D01*
X254652064Y-131575730D01*
X254337211Y-131104520D01*
X253936480Y-130703789D01*
X253465270Y-130388936D01*
X252941689Y-130172062D01*
X252385859Y-130061501D01*
X251819139Y-130061501D01*
X251263309Y-130172062D01*
X250739728Y-130388936D01*
X250268518Y-130703789D01*
X249867787Y-131104520D01*
X249552934Y-131575730D01*
X249336060Y-132099311D01*
X249225499Y-132655141D01*
X245173500Y-132655141D01*
X245173500Y-125412500D01*
X273367216Y-125412500D01*
X273240783Y-181991280D01*
M02*
