M48
; DRILL file {KiCad (5.1.0)-1} date 2019-03-27 11:46:08 PM
; FORMAT={-:-/ absolute / inch / decimal}
; #@! TF.CreationDate,2019-03-27T23:46:08-05:00
; #@! TF.GenerationSoftware,Kicad,Pcbnew,(5.1.0)-1
; #@! TF.FileFunction,Plated,1,2,PTH
FMAT,2
INCH
T1C0.0157
T2C0.0394
T3C0.0433
T4C0.0472
T5C0.0512
T6C0.0600
T7C0.0689
T8C0.0984
%
G90
G05
T1
X3.29Y-1.93
X3.29Y-2.01
X3.29Y-2.2
X3.29Y-2.39
X3.29Y-2.47
X3.365Y-4.365
X3.39Y-1.93
X3.39Y-2.47
X3.49Y-1.93
X3.49Y-2.47
X3.59Y-1.93
X3.59Y-2.47
X3.69Y-1.93
X3.69Y-2.47
X3.79Y-1.93
X3.79Y-2.47
X3.88Y-1.93
X3.88Y-2.01
X3.88Y-2.1
X3.88Y-2.2
X3.88Y-2.29
X3.88Y-2.39
X3.88Y-2.47
X3.92Y-4.3625
X3.995Y-4.44
X4.05Y-1.975
X4.05Y-2.075
X4.05Y-2.175
X4.05Y-2.275
X4.05Y-2.375
X4.05Y-2.475
X4.05Y-2.575
X4.05Y-2.675
X4.05Y-2.775
X4.05Y-2.845
X4.1325Y-4.4125
X4.15Y-1.975
X4.15Y-2.845
X4.25Y-1.975
X4.25Y-2.845
X4.35Y-1.975
X4.35Y-2.84
X4.45Y-1.975
X4.45Y-2.84
X4.53Y-1.13
X4.53Y-1.23
X4.53Y-1.33
X4.53Y-1.43
X4.53Y-1.53
X4.53Y-1.63
X4.53Y-1.73
X4.53Y-1.83
X4.53Y-2.07
X4.615Y-2.275
X4.615Y-2.375
X4.615Y-2.475
X4.615Y-2.575
X4.615Y-2.675
X4.63Y-1.13
X4.63Y-1.93
X4.71Y-2.0
X4.73Y-1.13
X4.83Y-1.13
X4.83Y-2.0
X4.93Y-1.13
X4.955Y-3.44
X5.03Y-1.13
X5.13Y-1.13
X5.13Y-1.23
X5.13Y-1.33
X5.13Y-1.43
X5.13Y-1.53
X5.13Y-1.63
X5.31Y-1.13
X5.31Y-1.23
X5.31Y-1.33
X5.31Y-1.43
X5.31Y-1.53
X5.31Y-1.63
X5.41Y-1.13
X5.51Y-1.13
X5.61Y-1.13
X5.61Y-2.0
X5.71Y-1.13
X5.71Y-2.0
X5.81Y-1.13
X5.81Y-1.93
X5.84Y-3.27
X5.91Y-1.13
X5.91Y-1.23
X5.91Y-1.33
X5.91Y-1.43
X5.91Y-1.53
X5.91Y-1.63
X5.91Y-1.73
X5.92Y-1.83
X5.93Y-2.045
X5.93Y-2.335
X6.015Y-1.975
X6.02Y-2.415
X6.115Y-1.975
X6.12Y-2.415
X6.215Y-1.975
X6.22Y-2.415
X6.315Y-1.975
X6.32Y-2.415
X6.415Y-1.975
X6.415Y-2.09
X6.415Y-2.31
X6.42Y-2.415
X6.63Y-1.93
X6.63Y-2.01
X6.63Y-2.09
X6.63Y-2.2
X6.63Y-2.31
X6.63Y-2.39
X6.63Y-2.47
X6.73Y-1.93
X6.73Y-2.47
X6.83Y-1.93
X6.83Y-2.47
X6.93Y-1.93
X6.93Y-2.47
X7.03Y-1.93
X7.03Y-2.47
X7.13Y-1.93
X7.13Y-2.47
X7.21Y-1.93
X7.21Y-2.01
X7.21Y-2.2
X7.21Y-2.39
X7.21Y-2.47
T2
X4.61Y-4.01
X4.61Y-4.2069
T3
X5.15Y-2.93
X5.55Y-2.93
X5.55Y-6.05
X5.55Y-6.45
X5.55Y-4.3
X5.55Y-4.7
T4
X7.03Y-2.98
X7.03Y-3.1178
T5
X3.46Y-4.01
X3.6608Y-4.01
X3.8616Y-4.01
X4.0624Y-4.01
X3.5576Y-2.2
X3.7544Y-2.2
X4.1481Y-2.2
X4.345Y-2.2
X6.145Y-2.2
X6.3419Y-2.2
X6.7356Y-2.2
X6.9324Y-2.2
X1.5066Y-4.0208
X1.7073Y-4.0208
X1.9081Y-4.0208
X2.1089Y-4.0208
T6
X3.35Y-2.8
X3.35Y-3.05
X3.35Y-3.3
X3.35Y-3.55
X4.55Y-2.8
X4.55Y-3.05
X4.55Y-3.3
X4.55Y-3.55
T7
X5.525Y-1.225
X5.725Y-1.225
X7.06Y-4.535
X7.06Y-4.735
X6.425Y-5.33
X6.425Y-5.53
X7.145Y-2.1
X7.145Y-2.3
X5.875Y-5.32
X5.875Y-5.52
X3.8Y-1.42
X4.0Y-1.42
X7.0625Y-5.3325
X7.0625Y-5.5325
X4.725Y-1.225
X4.925Y-1.225
X3.345Y-2.1
X3.345Y-2.3
T8
X5.9298Y-5.9398
X5.9298Y-6.5539
X6.1838Y-6.05
X6.1838Y-6.4437
X6.42Y-6.05
X6.42Y-6.4437
X6.6011Y-6.05
X6.6011Y-6.4437
X4.91Y-2.44
X5.0202Y-1.7687
X5.0202Y-1.9498
X5.0202Y-2.1861
X5.4139Y-1.7687
X5.4139Y-1.9498
X5.4139Y-2.1861
X5.5242Y-2.44
X5.9415Y-4.2211
X5.9415Y-4.8352
X6.1955Y-4.3313
X6.1955Y-4.725
X6.4317Y-4.3313
X6.4317Y-4.725
X6.6128Y-4.3313
X6.6128Y-4.725
T0
M30
