M48
; DRILL file {KiCad (5.1.0)-1} date 2019-07-30 10:29:14 PM
; FORMAT={-:-/ absolute / inch / decimal}
; #@! TF.CreationDate,2019-07-30T22:29:14-05:00
; #@! TF.GenerationSoftware,Kicad,Pcbnew,(5.1.0)-1
; #@! TF.FileFunction,Plated,1,2,PTH
FMAT,2
INCH
T1C0.0157
T2C0.0197
T3C0.0354
T4C0.0394
T5C0.0433
T6C0.0512
T7C0.0591
T8C0.0600
T9C0.0689
T10C0.0984
T11C0.1260
%
G90
G05
T1
X6.51Y-6.9475
X6.5442Y-6.1883
X6.55Y-6.03
X6.6025Y-2.8325
X6.6025Y-2.9125
X6.6025Y-3.1025
X6.6025Y-3.2925
X6.6025Y-3.3725
X6.6775Y-5.3075
X6.685Y-6.9475
X6.7025Y-2.8325
X6.7025Y-3.3725
X6.73Y-6.25
X6.74Y-6.805
X6.8025Y-2.8325
X6.8025Y-3.3725
X6.82Y-5.71
X6.865Y-7.325
X6.9025Y-2.8325
X6.9025Y-3.3725
X7.0025Y-2.8325
X7.0025Y-3.3725
X7.06Y-6.25
X7.1025Y-2.8325
X7.1025Y-3.3725
X7.1175Y-7.0075
X7.14Y-6.01
X7.185Y-6.3025
X7.185Y-6.695
X7.1925Y-2.8325
X7.1925Y-2.9125
X7.1925Y-3.0025
X7.1925Y-3.1025
X7.1925Y-3.1925
X7.1925Y-3.2925
X7.1925Y-3.3725
X7.2325Y-5.265
X7.2525Y-6.13
X7.255Y-6.385
X7.255Y-6.815
X7.2575Y-7.0975
X7.3075Y-5.3425
X7.3625Y-2.8775
X7.3625Y-2.9775
X7.3625Y-3.0775
X7.3625Y-3.1775
X7.3625Y-3.2775
X7.3625Y-3.3775
X7.3625Y-3.4775
X7.3625Y-3.5775
X7.3625Y-3.6775
X7.3625Y-3.7475
X7.3825Y-5.315
X7.4625Y-2.8775
X7.4625Y-3.7475
X7.485Y-7.35
X7.5075Y-7.21
X7.535Y-6.1325
X7.5625Y-2.8775
X7.5625Y-3.7475
X7.5675Y-6.8225
X7.6625Y-2.8775
X7.6625Y-3.7425
X7.6825Y-5.3975
X7.7625Y-2.8775
X7.795Y-6.36
X7.805Y-6.7275
X7.8425Y-2.0325
X7.8425Y-2.1325
X7.8425Y-2.2325
X7.8425Y-2.3325
X7.8425Y-2.4325
X7.8425Y-2.5325
X7.8425Y-2.6325
X7.8425Y-2.7325
X7.8425Y-2.9725
X7.86Y-5.74
X7.86Y-6.135
X7.88Y-6.4475
X7.88Y-6.8225
X7.9275Y-3.1775
X7.9275Y-3.2775
X7.9275Y-3.3775
X7.9275Y-3.4775
X7.9275Y-3.5775
X7.9425Y-2.0325
X7.9425Y-2.8325
X7.9725Y-6.16
X7.985Y-7.1325
X8.0225Y-2.9025
X8.0425Y-2.0325
X8.065Y-5.5125
X8.1425Y-2.0325
X8.1425Y-2.9025
X8.16Y-6.3075
X8.2425Y-2.0325
X8.2576Y-6.0899
X8.2675Y-4.3425
X8.315Y-6.6525
X8.3425Y-2.0325
X8.3675Y-6.0075
X8.385Y-6.2375
X8.4025Y-5.5675
X8.4425Y-2.0325
X8.4425Y-2.1325
X8.4425Y-2.2325
X8.4425Y-2.3325
X8.4425Y-2.4325
X8.4425Y-2.5325
X8.4525Y-6.585
X8.455Y-7.6025
X8.6225Y-2.0325
X8.6225Y-2.1325
X8.6225Y-2.2325
X8.6225Y-2.3325
X8.6225Y-2.4325
X8.6225Y-2.5325
X8.67Y-7.74
X8.7225Y-2.0325
X8.8225Y-2.0325
X8.9225Y-2.0325
X8.9225Y-2.9025
X9.0225Y-2.0325
X9.0225Y-2.9025
X9.105Y-4.2625
X9.1225Y-2.0325
X9.1225Y-2.8325
X9.15Y-4.005
X9.2225Y-2.0325
X9.2225Y-2.1325
X9.2225Y-2.2325
X9.2225Y-2.3325
X9.2225Y-2.4325
X9.2225Y-2.5325
X9.2225Y-2.6325
X9.2325Y-2.7325
X9.2425Y-2.9475
X9.2425Y-3.2375
X9.3275Y-2.8775
X9.3325Y-3.3175
X9.4275Y-2.8775
X9.4325Y-3.3175
X9.5225Y-3.7975
X9.5275Y-2.8775
X9.5325Y-3.3175
X9.6275Y-2.8775
X9.6325Y-3.3175
X9.7275Y-2.8775
X9.7275Y-2.9925
X9.7275Y-3.2125
X9.7325Y-3.3175
X9.9425Y-2.8325
X9.9425Y-2.9125
X9.9425Y-2.9925
X9.9425Y-3.1025
X9.9425Y-3.2125
X9.9425Y-3.2925
X9.9425Y-3.3725
X10.0425Y-2.8325
X10.0425Y-3.3725
X10.1425Y-2.8325
X10.1425Y-3.3725
X10.2425Y-2.8325
X10.2425Y-3.3725
X10.3425Y-2.8325
X10.3425Y-3.3725
X10.4425Y-2.8325
X10.4425Y-3.3725
X10.5225Y-2.8325
X10.5225Y-2.9125
X10.5225Y-3.1025
X10.5225Y-3.2925
X10.5225Y-3.3725
T2
X10.518Y-7.7025
X10.5457Y-7.6357
X10.5457Y-7.7693
X10.6125Y-7.608
X10.6125Y-7.797
X10.6793Y-7.6357
X10.6793Y-7.7693
X10.707Y-7.7025
X10.518Y-2.1025
X10.5457Y-2.0357
X10.5457Y-2.1693
X10.6125Y-2.008
X10.6125Y-2.197
X10.6793Y-2.0357
X10.6793Y-2.1693
X10.707Y-2.1025
X6.418Y-7.7025
X6.4457Y-7.6357
X6.4457Y-7.7693
X6.5125Y-7.608
X6.5125Y-7.797
X6.5793Y-7.6357
X6.5793Y-7.7693
X6.607Y-7.7025
X6.388Y-2.0775
X6.4157Y-2.0107
X6.4157Y-2.1443
X6.4825Y-1.983
X6.4825Y-2.172
X6.5493Y-2.0107
X6.5493Y-2.1443
X6.577Y-2.0775
T3
X6.5725Y-6.57
X6.6709Y-6.57
X6.7694Y-6.57
X6.6716Y-6.065
X6.77Y-6.065
X6.605Y-7.135
X6.605Y-7.2137
X6.605Y-7.2925
X7.7125Y-7.5525
X7.8109Y-7.5525
X10.635Y-4.3141
X10.635Y-4.4125
X7.025Y-7.545
X7.1234Y-7.545
X8.0725Y-6.4225
X8.1709Y-6.4225
X9.6575Y-4.2925
X9.7559Y-4.2925
T4
X8.1075Y-4.9125
X8.1075Y-5.1094
T5
X8.8625Y-5.2025
X8.8625Y-5.6025
X8.4625Y-3.8325
X8.8625Y-3.8325
X8.8625Y-6.9525
X8.8625Y-7.3525
T6
X9.4575Y-3.1025
X9.6544Y-3.1025
X10.0481Y-3.1025
X10.2449Y-3.1025
X6.7725Y-5.0075
X6.9733Y-5.0075
X7.1741Y-5.0075
X7.3749Y-5.0075
X6.8701Y-3.0675
X7.0669Y-3.0675
X7.4606Y-3.0675
X7.6575Y-3.0675
T7
X6.605Y-7.0523
X6.605Y-7.3752
T8
X6.5425Y-3.7575
X6.5425Y-4.0075
X6.5425Y-4.2575
X6.5425Y-4.5075
X7.7425Y-3.7575
X7.7425Y-4.0075
X7.7425Y-4.2575
X7.7425Y-4.5075
T9
X6.6575Y-3.0025
X6.6575Y-3.2025
X10.4575Y-3.0025
X10.4575Y-3.2025
X10.375Y-6.235
X10.375Y-6.435
X10.4125Y-4.0275
X10.6125Y-4.0275
X9.7375Y-6.2325
X9.7375Y-6.4325
X8.0375Y-2.1275
X8.2375Y-2.1275
X7.1125Y-2.3225
X7.3125Y-2.3225
X8.8375Y-2.1275
X9.0375Y-2.1275
X9.2075Y-6.225
X9.2075Y-6.425
X10.4725Y-5.4375
X10.4725Y-5.6375
T10
X9.2423Y-6.8423
X9.2423Y-7.4564
X9.4963Y-6.9525
X9.4963Y-7.3462
X9.7325Y-6.9525
X9.7325Y-7.3462
X9.9136Y-6.9525
X9.9136Y-7.3462
X8.2225Y-3.3425
X8.3327Y-2.6712
X8.3327Y-2.8523
X8.3327Y-3.0886
X8.7264Y-2.6712
X8.7264Y-2.8523
X8.7264Y-3.0886
X8.8367Y-3.3425
X9.254Y-5.1236
X9.254Y-5.7377
X9.508Y-5.2338
X9.508Y-5.6275
X9.7442Y-5.2338
X9.7442Y-5.6275
X9.9253Y-5.2338
X9.9253Y-5.6275
T11
X10.6125Y-7.7025
X10.6125Y-2.1025
X6.5125Y-7.7025
X6.4825Y-2.0775
T0
M30
