G04 #@! TF.GenerationSoftware,KiCad,Pcbnew,(5.1.0)-1*
G04 #@! TF.CreationDate,2019-07-30T22:29:16-05:00*
G04 #@! TF.ProjectId,LatheControl,4c617468-6543-46f6-9e74-726f6c2e6b69,01*
G04 #@! TF.SameCoordinates,Original*
G04 #@! TF.FileFunction,Paste,Top*
G04 #@! TF.FilePolarity,Positive*
%FSLAX46Y46*%
G04 Gerber Fmt 4.6, Leading zero omitted, Abs format (unit mm)*
G04 Created by KiCad (PCBNEW (5.1.0)-1) date 2019-07-30 22:29:16*
%MOMM*%
%LPD*%
G04 APERTURE LIST*
%ADD10R,2.000000X0.700000*%
%ADD11R,2.600000X1.600000*%
%ADD12R,1.600000X2.600000*%
%ADD13R,1.500000X3.200000*%
%ADD14R,1.500000X1.300000*%
%ADD15R,1.200000X0.900000*%
%ADD16R,1.200000X2.200000*%
%ADD17R,2.750000X3.050000*%
%ADD18R,0.700000X2.000000*%
%ADD19R,0.900000X1.200000*%
%ADD20R,1.560000X0.650000*%
%ADD21R,3.750000X2.500000*%
%ADD22R,3.050000X2.750000*%
%ADD23R,2.200000X1.200000*%
%ADD24R,3.800000X2.000000*%
G04 APERTURE END LIST*
D10*
X240093500Y-98361500D03*
X240093500Y-96461500D03*
X236693500Y-97411500D03*
D11*
X175409000Y-134747000D03*
X171809000Y-134747000D03*
D12*
X195135500Y-131296000D03*
X195135500Y-134896000D03*
D13*
X187515500Y-141731500D03*
X187515500Y-137731500D03*
D14*
X226060000Y-101727000D03*
X223360000Y-101727000D03*
X169131000Y-141795500D03*
X171831000Y-141795500D03*
D15*
X230527500Y-97345500D03*
X232727500Y-97345500D03*
X212194500Y-111823500D03*
X209994500Y-111823500D03*
X216639500Y-111823500D03*
X214439500Y-111823500D03*
X228854000Y-101727000D03*
X231054000Y-101727000D03*
X169504000Y-145034000D03*
X171704000Y-145034000D03*
D16*
X183705500Y-135699500D03*
X181425500Y-135699500D03*
X179145500Y-135699500D03*
D17*
X179900500Y-143674500D03*
X182950500Y-140324500D03*
X182950500Y-143674500D03*
X179900500Y-140324500D03*
D18*
X210632000Y-150529500D03*
X212532000Y-150529500D03*
X211582000Y-147129500D03*
X218315500Y-194930500D03*
X220215500Y-194930500D03*
X219265500Y-191530500D03*
D19*
X211582000Y-141373500D03*
X211582000Y-143573500D03*
X219265500Y-185696500D03*
X219265500Y-187896500D03*
D20*
X184197000Y-152783500D03*
X184197000Y-153733500D03*
X184197000Y-154683500D03*
X186897000Y-154683500D03*
X186897000Y-152783500D03*
D19*
X169799000Y-172869500D03*
X169799000Y-175069500D03*
X165354000Y-172890000D03*
X165354000Y-175090000D03*
D15*
X168422500Y-158686500D03*
X166222500Y-158686500D03*
D19*
X199644000Y-149436000D03*
X199644000Y-147236000D03*
X200152000Y-167300000D03*
X200152000Y-165100000D03*
D15*
X209486500Y-158496000D03*
X211686500Y-158496000D03*
D20*
X184260500Y-159133500D03*
X184260500Y-160083500D03*
X184260500Y-161033500D03*
X186960500Y-161033500D03*
X186960500Y-159133500D03*
X184307500Y-170053000D03*
X184307500Y-171003000D03*
X184307500Y-171953000D03*
X187007500Y-171953000D03*
X187007500Y-170053000D03*
X184307500Y-177043000D03*
X184307500Y-177993000D03*
X184307500Y-178943000D03*
X187007500Y-178943000D03*
X187007500Y-177043000D03*
X191372500Y-152783500D03*
X191372500Y-153733500D03*
X191372500Y-154683500D03*
X194072500Y-154683500D03*
X194072500Y-152783500D03*
X192198000Y-170055500D03*
X192198000Y-171005500D03*
X192198000Y-171955500D03*
X194898000Y-171955500D03*
X194898000Y-170055500D03*
X200135500Y-170055500D03*
X200135500Y-171005500D03*
X200135500Y-171955500D03*
X202835500Y-171955500D03*
X202835500Y-170055500D03*
X199627500Y-152783500D03*
X199627500Y-153733500D03*
X199627500Y-154683500D03*
X202327500Y-154683500D03*
X202327500Y-152783500D03*
D21*
X228092000Y-108267500D03*
X221842000Y-108267500D03*
D22*
X218039500Y-120778000D03*
X221389500Y-117728000D03*
X218039500Y-117728000D03*
X221389500Y-120778000D03*
D23*
X213414500Y-121533000D03*
X213414500Y-119253000D03*
X213414500Y-116973000D03*
D14*
X217076000Y-177038000D03*
X214376000Y-177038000D03*
D18*
X212153500Y-174166000D03*
X211203500Y-170766000D03*
X213103500Y-170766000D03*
D19*
X208534000Y-175260000D03*
X208534000Y-177460000D03*
D10*
X179578000Y-185102500D03*
X176178000Y-186052500D03*
X176178000Y-184152500D03*
X191911500Y-184851000D03*
X191911500Y-186751000D03*
X195311500Y-185801000D03*
D15*
X185524500Y-185102500D03*
X183324500Y-185102500D03*
X198714000Y-185801000D03*
X200914000Y-185801000D03*
D24*
X214947500Y-103505000D03*
X195707000Y-141224000D03*
D15*
X238887000Y-118554500D03*
X236687000Y-118554500D03*
M02*
