G04 #@! TF.GenerationSoftware,KiCad,Pcbnew,(5.1.0)-1*
G04 #@! TF.CreationDate,2019-03-27T23:46:10-05:00*
G04 #@! TF.ProjectId,LatheControl,4c617468-6543-46f6-9e74-726f6c2e6b69,rev?*
G04 #@! TF.SameCoordinates,Original*
G04 #@! TF.FileFunction,Paste,Top*
G04 #@! TF.FilePolarity,Positive*
%FSLAX46Y46*%
G04 Gerber Fmt 4.6, Leading zero omitted, Abs format (unit mm)*
G04 Created by KiCad (PCBNEW (5.1.0)-1) date 2019-03-27 23:46:10*
%MOMM*%
%LPD*%
G04 APERTURE LIST*
%ADD10R,2.000000X0.700000*%
%ADD11R,2.600000X1.600000*%
%ADD12R,1.500000X3.200000*%
%ADD13R,1.500000X1.300000*%
%ADD14R,1.200000X0.900000*%
%ADD15R,2.200000X1.200000*%
%ADD16R,3.050000X2.750000*%
%ADD17R,1.200000X2.200000*%
%ADD18R,2.750000X3.050000*%
%ADD19R,1.560000X0.650000*%
G04 APERTURE END LIST*
D10*
X155956000Y-75438000D03*
X155956000Y-73538000D03*
X152556000Y-74488000D03*
D11*
X91271500Y-110807500D03*
X87671500Y-110807500D03*
X114786000Y-112776000D03*
X118386000Y-112776000D03*
D12*
X104965500Y-118808000D03*
X104965500Y-114808000D03*
D13*
X141986000Y-83058000D03*
X139286000Y-83058000D03*
X84993500Y-118872000D03*
X87693500Y-118872000D03*
D14*
X146390000Y-74422000D03*
X148590000Y-74422000D03*
X128057000Y-88900000D03*
X125857000Y-88900000D03*
X132502000Y-88900000D03*
X130302000Y-88900000D03*
X144780000Y-83058000D03*
X146980000Y-83058000D03*
X85366500Y-122110500D03*
X87566500Y-122110500D03*
D15*
X129277000Y-94113000D03*
X129277000Y-96393000D03*
X129277000Y-98673000D03*
D16*
X137252000Y-97918000D03*
X133902000Y-94868000D03*
X137252000Y-94868000D03*
X133902000Y-97918000D03*
D17*
X99568000Y-112776000D03*
X97288000Y-112776000D03*
X95008000Y-112776000D03*
D18*
X95763000Y-120751000D03*
X98813000Y-117401000D03*
X98813000Y-120751000D03*
X95763000Y-117401000D03*
D10*
X121949000Y-118239500D03*
X121949000Y-120139500D03*
X125349000Y-119189500D03*
X127332000Y-162880000D03*
X127332000Y-164780000D03*
X130732000Y-163830000D03*
D14*
X131105000Y-119189500D03*
X128905000Y-119189500D03*
X136566000Y-163830000D03*
X134366000Y-163830000D03*
D19*
X116045000Y-146055000D03*
X116045000Y-147005000D03*
X116045000Y-147955000D03*
X118745000Y-147955000D03*
X118745000Y-146055000D03*
D14*
X35138000Y-154940000D03*
X37338000Y-154940000D03*
X47838000Y-157480000D03*
X50038000Y-157480000D03*
X60538000Y-170180000D03*
X62738000Y-170180000D03*
X60538000Y-160020000D03*
X62738000Y-160020000D03*
X63078000Y-154940000D03*
X65278000Y-154940000D03*
X63078000Y-149860000D03*
X65278000Y-149860000D03*
D19*
X116045000Y-151770000D03*
X116045000Y-152720000D03*
X116045000Y-153670000D03*
X118745000Y-153670000D03*
X118745000Y-151770000D03*
X116045000Y-133985000D03*
X116045000Y-134935000D03*
X116045000Y-135885000D03*
X118745000Y-135885000D03*
X118745000Y-133985000D03*
X116045000Y-139705000D03*
X116045000Y-140655000D03*
X116045000Y-141605000D03*
X118745000Y-141605000D03*
X118745000Y-139705000D03*
X122475000Y-148910000D03*
X122475000Y-149860000D03*
X122475000Y-150810000D03*
X125175000Y-150810000D03*
X125175000Y-148910000D03*
X122395000Y-136525000D03*
X122395000Y-137475000D03*
X122395000Y-138425000D03*
X125095000Y-138425000D03*
X125095000Y-136525000D03*
D14*
X105750000Y-139700000D03*
X107950000Y-139700000D03*
X90510000Y-147320000D03*
X92710000Y-147320000D03*
D19*
X83740000Y-146370000D03*
X83740000Y-147320000D03*
X83740000Y-148270000D03*
X86440000Y-148270000D03*
X86440000Y-146370000D03*
X98805001Y-139145001D03*
X98805001Y-140095001D03*
X98805001Y-141045001D03*
X101505001Y-141045001D03*
X101505001Y-139145001D03*
M02*
