G04 #@! TF.GenerationSoftware,KiCad,Pcbnew,(5.1.0)-1*
G04 #@! TF.CreationDate,2019-03-27T23:46:10-05:00*
G04 #@! TF.ProjectId,LatheControl,4c617468-6543-46f6-9e74-726f6c2e6b69,rev?*
G04 #@! TF.SameCoordinates,Original*
G04 #@! TF.FileFunction,Soldermask,Bot*
G04 #@! TF.FilePolarity,Negative*
%FSLAX46Y46*%
G04 Gerber Fmt 4.6, Leading zero omitted, Abs format (unit mm)*
G04 Created by KiCad (PCBNEW (5.1.0)-1) date 2019-03-27 23:46:10*
%MOMM*%
%LPD*%
G04 APERTURE LIST*
%ADD10C,2.940000*%
%ADD11R,2.400000X2.400000*%
%ADD12C,2.400000*%
%ADD13R,2.600000X2.600000*%
%ADD14O,2.600000X2.600000*%
%ADD15R,4.000000X2.200000*%
%ADD16O,4.000000X2.200000*%
%ADD17C,3.600000*%
%ADD18C,3.900000*%
%ADD19C,2.900000*%
%ADD20C,3.650000*%
%ADD21R,2.500000X2.500000*%
%ADD22C,2.500000*%
G04 APERTURE END LIST*
D10*
X85090000Y-71120000D03*
X85090000Y-77470000D03*
X85090000Y-83820000D03*
X85090000Y-90170000D03*
X115570000Y-71120000D03*
X115570000Y-77470000D03*
X115570000Y-83820000D03*
X115570000Y-90170000D03*
D11*
X117094000Y-101854000D03*
D12*
X117094000Y-106854000D03*
D13*
X130810000Y-74422000D03*
D14*
X140970000Y-74422000D03*
D15*
X178562000Y-75692000D03*
D16*
X178562000Y-79192000D03*
D12*
X171083000Y-55880000D03*
X176083000Y-55880000D03*
X161083000Y-55880000D03*
X156083000Y-55880000D03*
X95363000Y-55880000D03*
X90363000Y-55880000D03*
X105363000Y-55880000D03*
X110363000Y-55880000D03*
D17*
X81280000Y-30480000D03*
X81280000Y-172720000D03*
X185420000Y-30480000D03*
X185420000Y-172720000D03*
D13*
X140970000Y-109220000D03*
D14*
X140970000Y-119380000D03*
D13*
X140970000Y-153670000D03*
D14*
X140970000Y-163830000D03*
D18*
X157364999Y-120015001D03*
X163364999Y-120015001D03*
X167964999Y-120015001D03*
X167964999Y-110015001D03*
X163364999Y-110015001D03*
X157364999Y-110015001D03*
X150914999Y-122815001D03*
X150914999Y-107215001D03*
X157068000Y-163670000D03*
X163068000Y-163670000D03*
X167668000Y-163670000D03*
X167668000Y-153670000D03*
X163068000Y-153670000D03*
X157068000Y-153670000D03*
X150618000Y-166470000D03*
X150618000Y-150870000D03*
D19*
X181483000Y-53340000D03*
X181483000Y-58420000D03*
X84963000Y-58420000D03*
X84963000Y-53340000D03*
X125095000Y-31115000D03*
X120015000Y-31115000D03*
X145415000Y-31115000D03*
X140335000Y-31115000D03*
D18*
X124714000Y-61976000D03*
X140314000Y-61976000D03*
D20*
X127514000Y-55526000D03*
X127514000Y-49526000D03*
X127514000Y-44926000D03*
X137514000Y-44926000D03*
X137514000Y-49526000D03*
X137514000Y-55526000D03*
D19*
X96520000Y-36068000D03*
X101600000Y-36068000D03*
D21*
X103184000Y-101854000D03*
D22*
X98084000Y-101854000D03*
X87884000Y-101854000D03*
X92984000Y-101854000D03*
X48466501Y-102129501D03*
X53566501Y-102129501D03*
X43366501Y-102129501D03*
D21*
X38266501Y-102129501D03*
D19*
X179387500Y-140525500D03*
X179387500Y-135445500D03*
X179324000Y-115189000D03*
X179324000Y-120269000D03*
X163195000Y-140462000D03*
X163195000Y-135382000D03*
X149225000Y-140208000D03*
X149225000Y-135128000D03*
M02*
