G04 #@! TF.GenerationSoftware,KiCad,Pcbnew,(5.1.0)-1*
G04 #@! TF.CreationDate,2019-07-30T22:29:16-05:00*
G04 #@! TF.ProjectId,LatheControl,4c617468-6543-46f6-9e74-726f6c2e6b69,01*
G04 #@! TF.SameCoordinates,Original*
G04 #@! TF.FileFunction,Soldermask,Bot*
G04 #@! TF.FilePolarity,Negative*
%FSLAX46Y46*%
G04 Gerber Fmt 4.6, Leading zero omitted, Abs format (unit mm)*
G04 Created by KiCad (PCBNEW (5.1.0)-1) date 2019-07-30 22:29:16*
%MOMM*%
%LPD*%
G04 APERTURE LIST*
%ADD10C,2.940000*%
%ADD11R,2.400000X2.400000*%
%ADD12C,2.400000*%
%ADD13R,2.600000X2.600000*%
%ADD14O,2.600000X2.600000*%
%ADD15C,3.900000*%
%ADD16C,2.900000*%
%ADD17C,3.650000*%
%ADD18R,2.500000X2.500000*%
%ADD19C,2.500000*%
%ADD20C,1.200000*%
%ADD21C,6.800000*%
%ADD22C,2.250000*%
%ADD23R,2.250000X2.250000*%
%ADD24O,3.900000X2.600000*%
%ADD25O,2.900000X1.900000*%
%ADD26R,2.900000X1.900000*%
G04 APERTURE END LIST*
D10*
X166179500Y-95440500D03*
X166179500Y-101790500D03*
X166179500Y-108140500D03*
X166179500Y-114490500D03*
X196659500Y-95440500D03*
X196659500Y-101790500D03*
X196659500Y-108140500D03*
X196659500Y-114490500D03*
D11*
X205930500Y-124777500D03*
D12*
X205930500Y-129777500D03*
D13*
X214947500Y-97345500D03*
D14*
X225107500Y-97345500D03*
D12*
X255220500Y-78803500D03*
X260220500Y-78803500D03*
X245220500Y-78803500D03*
X240220500Y-78803500D03*
X179500500Y-77914500D03*
X174500500Y-77914500D03*
X189500500Y-77914500D03*
X194500500Y-77914500D03*
D13*
X225107500Y-132143500D03*
D14*
X225107500Y-142303500D03*
D13*
X225107500Y-176593500D03*
D14*
X225107500Y-186753500D03*
D15*
X241502499Y-142938501D03*
X247502499Y-142938501D03*
X252102499Y-142938501D03*
X252102499Y-132938501D03*
X247502499Y-132938501D03*
X241502499Y-132938501D03*
X235052499Y-145738501D03*
X235052499Y-130138501D03*
X241205500Y-186593500D03*
X247205500Y-186593500D03*
X251805500Y-186593500D03*
X251805500Y-176593500D03*
X247205500Y-176593500D03*
X241205500Y-176593500D03*
X234755500Y-189393500D03*
X234755500Y-173793500D03*
D16*
X265620500Y-76263500D03*
X265620500Y-81343500D03*
X169100500Y-81343500D03*
X169100500Y-76263500D03*
X209232500Y-54038500D03*
X204152500Y-54038500D03*
X229552500Y-54038500D03*
X224472500Y-54038500D03*
D15*
X208851500Y-84899500D03*
X224451500Y-84899500D03*
D17*
X211651500Y-78449500D03*
X211651500Y-72449500D03*
X211651500Y-67849500D03*
X221651500Y-67849500D03*
X221651500Y-72449500D03*
X221651500Y-78449500D03*
D16*
X180657500Y-58991500D03*
X185737500Y-58991500D03*
D18*
X187321500Y-127190500D03*
D19*
X182221500Y-127190500D03*
X172021500Y-127190500D03*
X177121500Y-127190500D03*
D16*
X263525000Y-163449000D03*
X263525000Y-158369000D03*
X266001500Y-138112500D03*
X266001500Y-143192500D03*
X247332500Y-163385500D03*
X247332500Y-158305500D03*
X233870500Y-163195000D03*
X233870500Y-158115000D03*
D20*
X166352556Y-51071444D03*
X164655500Y-50368500D03*
X162958444Y-51071444D03*
X162255500Y-52768500D03*
X162958444Y-54465556D03*
X164655500Y-55168500D03*
X166352556Y-54465556D03*
X167055500Y-52768500D03*
D21*
X164655500Y-52768500D03*
X165417500Y-195643500D03*
D20*
X167817500Y-195643500D03*
X167114556Y-197340556D03*
X165417500Y-198043500D03*
X163720444Y-197340556D03*
X163017500Y-195643500D03*
X163720444Y-193946444D03*
X165417500Y-193243500D03*
X167114556Y-193946444D03*
X271254556Y-51706444D03*
X269557500Y-51003500D03*
X267860444Y-51706444D03*
X267157500Y-53403500D03*
X267860444Y-55100556D03*
X269557500Y-55803500D03*
X271254556Y-55100556D03*
X271957500Y-53403500D03*
D21*
X269557500Y-53403500D03*
X269557500Y-195643500D03*
D20*
X271957500Y-195643500D03*
X271254556Y-197340556D03*
X269557500Y-198043500D03*
X267860444Y-197340556D03*
X267157500Y-195643500D03*
X267860444Y-193946444D03*
X269557500Y-193243500D03*
X271254556Y-193946444D03*
D22*
X247800500Y-109029500D03*
D23*
X245300500Y-109029500D03*
D22*
X169458000Y-154051000D03*
D23*
X171958000Y-154051000D03*
X205041500Y-163131500D03*
D22*
X207541500Y-163131500D03*
X166941500Y-166878000D03*
X169441500Y-166878000D03*
D23*
X171941500Y-166878000D03*
D16*
X264477500Y-102298500D03*
X269557500Y-102298500D03*
D22*
X180935000Y-191643000D03*
D23*
X178435000Y-191643000D03*
X195897500Y-191833500D03*
D22*
X198397500Y-191833500D03*
D24*
X167767000Y-187329000D03*
X167767000Y-179129000D03*
D25*
X167767000Y-185229000D03*
X167767000Y-183229000D03*
D26*
X167767000Y-181229000D03*
D22*
X270129000Y-109577500D03*
D23*
X270129000Y-112077500D03*
M02*
